<svg width="551" height="633" viewBox="0 0 551 633" fill="none" xmlns="http://www.w3.org/2000/svg">
<path fill-rule="evenodd" clip-rule="evenodd" d="M315.655 48.9688C376.29 47.8314 437.489 -21.6106 489.663 8.61359C542.074 38.9745 527.428 119.114 537.997 177.77C545.555 219.712 500.203 260.719 502 303.271C503.886 347.916 560.285 391.638 548.857 434.902C535.55 485.28 513.054 535.212 472.572 568.988C429.064 605.289 371.383 642.075 315.655 629.473C258.203 616.482 247.441 534.055 195.71 506.381C142.018 477.659 48.3559 523.224 18.9457 470.749C-10.793 417.688 84.7625 363.71 81.8744 303.271C78.7496 237.878 -11.6226 190.501 2.49622 126.508C15.5698 67.2523 85.3542 29.9526 145.46 15.0702C202.558 0.932591 256.766 50.0734 315.655 48.9688Z" fill="#FFFDEF" stroke="#E8E8E8"/>
<g filter="url(#filter0_d)">
<rect x="101" y="38" width="307" height="525" rx="35" fill="white"/>
<rect x="101.5" y="38.5" width="306" height="524" rx="34.5" stroke="#C4C4C4"/>
</g>
<circle cx="370" cy="523" r="20" fill="#50ABFF"/>
<rect x="338" y="59" width="50" height="23" rx="6" fill="#50ABFF"/>
<path d="M299.504 70.1973C298.539 69.9199 297.836 69.5801 297.395 69.1777C296.957 68.7715 296.738 68.2715 296.738 67.6777C296.738 67.0059 297.006 66.4512 297.541 66.0137C298.08 65.5723 298.779 65.3516 299.639 65.3516C300.225 65.3516 300.746 65.4648 301.203 65.6914C301.664 65.918 302.02 66.2305 302.27 66.6289C302.523 67.0273 302.65 67.4629 302.65 67.9355H301.52C301.52 67.4199 301.355 67.0156 301.027 66.7227C300.699 66.4258 300.236 66.2773 299.639 66.2773C299.084 66.2773 298.65 66.4004 298.338 66.6465C298.029 66.8887 297.875 67.2266 297.875 67.6602C297.875 68.0078 298.021 68.3027 298.314 68.5449C298.611 68.7832 299.113 69.002 299.82 69.2012C300.531 69.4004 301.086 69.6211 301.484 69.8633C301.887 70.1016 302.184 70.3809 302.375 70.7012C302.57 71.0215 302.668 71.3984 302.668 71.832C302.668 72.5234 302.398 73.0781 301.859 73.4961C301.32 73.9102 300.6 74.1172 299.697 74.1172C299.111 74.1172 298.564 74.0059 298.057 73.7832C297.549 73.5566 297.156 73.248 296.879 72.8574C296.605 72.4668 296.469 72.0234 296.469 71.5273H297.6C297.6 72.043 297.789 72.4512 298.168 72.752C298.551 73.0488 299.061 73.1973 299.697 73.1973C300.291 73.1973 300.746 73.0762 301.062 72.834C301.379 72.5918 301.537 72.2617 301.537 71.8438C301.537 71.4258 301.391 71.1035 301.098 70.877C300.805 70.6465 300.273 70.4199 299.504 70.1973ZM305.123 74H304.039V67.6602H305.123V74ZM303.951 65.9785C303.951 65.8027 304.004 65.6543 304.109 65.5332C304.219 65.4121 304.379 65.3516 304.59 65.3516C304.801 65.3516 304.961 65.4121 305.07 65.5332C305.18 65.6543 305.234 65.8027 305.234 65.9785C305.234 66.1543 305.18 66.3008 305.07 66.418C304.961 66.5352 304.801 66.5938 304.59 66.5938C304.379 66.5938 304.219 66.5352 304.109 66.418C304.004 66.3008 303.951 66.1543 303.951 65.9785ZM306.605 70.7773C306.605 69.7891 306.834 69.0039 307.291 68.4219C307.748 67.8359 308.354 67.543 309.107 67.543C309.881 67.543 310.484 67.8164 310.918 68.3633L310.971 67.6602H311.961V73.8477C311.961 74.668 311.717 75.3145 311.229 75.7871C310.744 76.2598 310.092 76.4961 309.271 76.4961C308.814 76.4961 308.367 76.3984 307.93 76.2031C307.492 76.0078 307.158 75.7402 306.928 75.4004L307.49 74.75C307.955 75.3242 308.523 75.6113 309.195 75.6113C309.723 75.6113 310.133 75.4629 310.426 75.166C310.723 74.8691 310.871 74.4512 310.871 73.9121V73.3672C310.438 73.8672 309.846 74.1172 309.096 74.1172C308.354 74.1172 307.752 73.8184 307.291 73.2207C306.834 72.623 306.605 71.8086 306.605 70.7773ZM307.695 70.9004C307.695 71.6152 307.842 72.1777 308.135 72.5879C308.428 72.9941 308.838 73.1973 309.365 73.1973C310.049 73.1973 310.551 72.8867 310.871 72.2656V69.3711C310.539 68.7656 310.041 68.4629 309.377 68.4629C308.85 68.4629 308.438 68.668 308.141 69.0781C307.844 69.4883 307.695 70.0957 307.695 70.9004ZM314.627 67.6602L314.662 68.457C315.146 67.8477 315.779 67.543 316.561 67.543C317.9 67.543 318.576 68.2988 318.588 69.8105V74H317.504V69.8047C317.5 69.3477 317.395 69.0098 317.188 68.791C316.984 68.5723 316.666 68.4629 316.232 68.4629C315.881 68.4629 315.572 68.5566 315.307 68.7441C315.041 68.9316 314.834 69.1777 314.686 69.4824V74H313.602V67.6602H314.627ZM324.576 74H323.451V65.4688H324.576V74ZM327.494 67.6602L327.529 68.457C328.014 67.8477 328.646 67.543 329.428 67.543C330.768 67.543 331.443 68.2988 331.455 69.8105V74H330.371V69.8047C330.367 69.3477 330.262 69.0098 330.055 68.791C329.852 68.5723 329.533 68.4629 329.1 68.4629C328.748 68.4629 328.439 68.5566 328.174 68.7441C327.908 68.9316 327.701 69.1777 327.553 69.4824V74H326.469V67.6602H327.494Z" fill="#8F8F8F"/>
<path d="M347.68 70.1973C346.715 69.9199 346.012 69.5801 345.57 69.1777C345.133 68.7715 344.914 68.2715 344.914 67.6777C344.914 67.0059 345.182 66.4512 345.717 66.0137C346.256 65.5723 346.955 65.3516 347.814 65.3516C348.4 65.3516 348.922 65.4648 349.379 65.6914C349.84 65.918 350.195 66.2305 350.445 66.6289C350.699 67.0273 350.826 67.4629 350.826 67.9355H349.695C349.695 67.4199 349.531 67.0156 349.203 66.7227C348.875 66.4258 348.412 66.2773 347.814 66.2773C347.26 66.2773 346.826 66.4004 346.514 66.6465C346.205 66.8887 346.051 67.2266 346.051 67.6602C346.051 68.0078 346.197 68.3027 346.49 68.5449C346.787 68.7832 347.289 69.002 347.996 69.2012C348.707 69.4004 349.262 69.6211 349.66 69.8633C350.062 70.1016 350.359 70.3809 350.551 70.7012C350.746 71.0215 350.844 71.3984 350.844 71.832C350.844 72.5234 350.574 73.0781 350.035 73.4961C349.496 73.9102 348.775 74.1172 347.873 74.1172C347.287 74.1172 346.74 74.0059 346.232 73.7832C345.725 73.5566 345.332 73.248 345.055 72.8574C344.781 72.4668 344.645 72.0234 344.645 71.5273H345.775C345.775 72.043 345.965 72.4512 346.344 72.752C346.727 73.0488 347.236 73.1973 347.873 73.1973C348.467 73.1973 348.922 73.0762 349.238 72.834C349.555 72.5918 349.713 72.2617 349.713 71.8438C349.713 71.4258 349.566 71.1035 349.273 70.877C348.98 70.6465 348.449 70.4199 347.68 70.1973ZM353.299 74H352.215V67.6602H353.299V74ZM352.127 65.9785C352.127 65.8027 352.18 65.6543 352.285 65.5332C352.395 65.4121 352.555 65.3516 352.766 65.3516C352.977 65.3516 353.137 65.4121 353.246 65.5332C353.355 65.6543 353.41 65.8027 353.41 65.9785C353.41 66.1543 353.355 66.3008 353.246 66.418C353.137 66.5352 352.977 66.5938 352.766 66.5938C352.555 66.5938 352.395 66.5352 352.285 66.418C352.18 66.3008 352.127 66.1543 352.127 65.9785ZM354.781 70.7773C354.781 69.7891 355.01 69.0039 355.467 68.4219C355.924 67.8359 356.529 67.543 357.283 67.543C358.057 67.543 358.66 67.8164 359.094 68.3633L359.146 67.6602H360.137V73.8477C360.137 74.668 359.893 75.3145 359.404 75.7871C358.92 76.2598 358.268 76.4961 357.447 76.4961C356.99 76.4961 356.543 76.3984 356.105 76.2031C355.668 76.0078 355.334 75.7402 355.104 75.4004L355.666 74.75C356.131 75.3242 356.699 75.6113 357.371 75.6113C357.898 75.6113 358.309 75.4629 358.602 75.166C358.898 74.8691 359.047 74.4512 359.047 73.9121V73.3672C358.613 73.8672 358.021 74.1172 357.271 74.1172C356.529 74.1172 355.928 73.8184 355.467 73.2207C355.01 72.623 354.781 71.8086 354.781 70.7773ZM355.871 70.9004C355.871 71.6152 356.018 72.1777 356.311 72.5879C356.604 72.9941 357.014 73.1973 357.541 73.1973C358.225 73.1973 358.727 72.8867 359.047 72.2656V69.3711C358.715 68.7656 358.217 68.4629 357.553 68.4629C357.025 68.4629 356.613 68.668 356.316 69.0781C356.02 69.4883 355.871 70.0957 355.871 70.9004ZM362.803 67.6602L362.838 68.457C363.322 67.8477 363.955 67.543 364.736 67.543C366.076 67.543 366.752 68.2988 366.764 69.8105V74H365.68V69.8047C365.676 69.3477 365.57 69.0098 365.363 68.791C365.16 68.5723 364.842 68.4629 364.408 68.4629C364.057 68.4629 363.748 68.5566 363.482 68.7441C363.217 68.9316 363.01 69.1777 362.861 69.4824V74H361.777V67.6602H362.803ZM374.574 65.4688V71.2695C374.57 72.0742 374.316 72.7324 373.812 73.2441C373.312 73.7559 372.633 74.043 371.773 74.1055L371.475 74.1172C370.541 74.1172 369.797 73.8652 369.242 73.3613C368.688 72.8574 368.406 72.1641 368.398 71.2812V65.4688H369.512V71.2461C369.512 71.8633 369.682 72.3438 370.021 72.6875C370.361 73.0273 370.846 73.1973 371.475 73.1973C372.111 73.1973 372.598 73.0273 372.934 72.6875C373.273 72.3477 373.443 71.8691 373.443 71.252V65.4688H374.574ZM381.535 70.9004C381.535 71.8652 381.314 72.6426 380.873 73.2324C380.432 73.8223 379.834 74.1172 379.08 74.1172C378.311 74.1172 377.705 73.873 377.264 73.3848V76.4375H376.18V67.6602H377.17L377.223 68.3633C377.664 67.8164 378.277 67.543 379.062 67.543C379.824 67.543 380.426 67.8301 380.867 68.4043C381.312 68.9785 381.535 69.7773 381.535 70.8008V70.9004ZM380.451 70.7773C380.451 70.0625 380.299 69.498 379.994 69.084C379.689 68.6699 379.271 68.4629 378.74 68.4629C378.084 68.4629 377.592 68.7539 377.264 69.3359V72.3652C377.588 72.9434 378.084 73.2324 378.752 73.2324C379.271 73.2324 379.684 73.0273 379.988 72.6172C380.297 72.2031 380.451 71.5898 380.451 70.7773Z" fill="white"/>
<path d="M147.018 81.8866C147.07 82.6556 146.282 83.2016 145.581 82.8819L142.499 81.4773C141.78 81.1499 141.692 80.1645 142.341 79.7149L145.192 77.7405C145.841 77.291 146.733 77.7199 146.787 78.5076L147.018 81.8866Z" fill="url(#paint0_linear)"/>
<path d="M151 70.2105C151 76.9542 144.508 82.4211 136.5 82.4211C128.492 82.4211 122 76.9542 122 70.2105C122 63.4668 128.492 58 136.5 58C144.508 58 151 63.4668 151 70.2105Z" fill="url(#paint1_linear)"/>
<path d="M132.175 70.7193C132.175 71.9837 131.15 73.0087 129.886 73.0087C128.622 73.0087 127.596 71.9837 127.596 70.7193C127.596 69.4548 128.622 68.4298 129.886 68.4298C131.15 68.4298 132.175 69.4548 132.175 70.7193Z" fill="white"/>
<path d="M145.403 70.7193C145.403 71.9837 144.378 73.0087 143.114 73.0087C141.849 73.0087 140.824 71.9837 140.824 70.7193C140.824 69.4548 141.849 68.4298 143.114 68.4298C144.378 68.4298 145.403 69.4548 145.403 70.7193Z" fill="white"/>
<path d="M138.79 70.7193C138.79 71.9837 137.765 73.0087 136.5 73.0087C135.236 73.0087 134.211 71.9837 134.211 70.7193C134.211 69.4548 135.236 68.4298 136.5 68.4298C137.765 68.4298 138.79 69.4548 138.79 70.7193Z" fill="white"/>
<path d="M174.592 211.32C174.592 211.777 174.498 212.199 174.311 212.586C174.123 212.961 173.854 213.283 173.502 213.553C173.15 213.822 172.717 214.033 172.201 214.186C171.697 214.338 171.117 214.414 170.461 214.414C169.723 214.414 169.043 214.332 168.422 214.168C167.812 214.004 167.291 213.746 166.857 213.395C166.412 213.043 166.066 212.592 165.82 212.041C165.574 211.49 165.439 210.828 165.416 210.055H160.564C160.564 211.379 160.816 212.533 161.32 213.518C161.836 214.502 162.533 215.357 163.412 216.084C164.338 216.822 165.422 217.385 166.664 217.771C167.918 218.146 169.184 218.334 170.461 218.334C171.762 218.334 172.963 218.182 174.064 217.877C175.166 217.561 176.115 217.098 176.912 216.488C177.709 215.891 178.33 215.158 178.775 214.291C179.232 213.412 179.461 212.41 179.461 211.285C179.461 209.984 179.162 208.836 178.564 207.84C177.967 206.844 177.164 205.971 176.156 205.221C175.488 204.764 174.756 204.359 173.959 204.008C173.162 203.656 172.324 203.357 171.445 203.111C170.625 202.889 169.887 202.648 169.23 202.391C168.586 202.133 168.035 201.846 167.578 201.529C167.121 201.225 166.77 200.879 166.523 200.492C166.289 200.105 166.172 199.672 166.172 199.191C166.172 198.734 166.26 198.312 166.436 197.926C166.623 197.527 166.893 197.182 167.244 196.889C167.596 196.607 168.023 196.391 168.527 196.238C169.043 196.074 169.629 195.992 170.285 195.992C171 195.992 171.621 196.092 172.148 196.291C172.688 196.479 173.139 196.742 173.502 197.082C173.854 197.434 174.117 197.85 174.293 198.33C174.48 198.811 174.586 199.338 174.609 199.912H179.426C179.426 198.764 179.203 197.709 178.758 196.748C178.312 195.787 177.691 194.955 176.895 194.252C176.098 193.561 175.143 193.021 174.029 192.635C172.928 192.248 171.709 192.055 170.373 192.055C169.084 192.055 167.889 192.225 166.787 192.564C165.686 192.893 164.73 193.367 163.922 193.988C163.113 194.609 162.48 195.359 162.023 196.238C161.566 197.117 161.338 198.096 161.338 199.174C161.338 200.111 161.508 200.979 161.848 201.775C162.199 202.572 162.715 203.299 163.395 203.955C164.074 204.611 164.947 205.215 166.014 205.766C167.092 206.316 168.34 206.785 169.758 207.172C170.672 207.418 171.434 207.688 172.043 207.98C172.664 208.262 173.168 208.572 173.555 208.912C173.93 209.264 174.193 209.639 174.346 210.037C174.51 210.436 174.592 210.863 174.592 211.32ZM184.4 198.98V202.971H189.814V214.027H184.4V218H199.904V214.027H194.754V198.98H184.4ZM189.463 194.111C189.463 194.486 189.527 194.838 189.656 195.166C189.797 195.482 189.99 195.752 190.236 195.975C190.482 196.209 190.775 196.391 191.115 196.52C191.467 196.648 191.854 196.713 192.275 196.713C193.143 196.713 193.828 196.473 194.332 195.992C194.848 195.5 195.105 194.873 195.105 194.111C195.105 193.35 194.848 192.729 194.332 192.248C193.828 191.756 193.143 191.51 192.275 191.51C191.854 191.51 191.467 191.574 191.115 191.703C190.775 191.832 190.482 192.008 190.236 192.23C189.99 192.465 189.797 192.746 189.656 193.074C189.527 193.391 189.463 193.736 189.463 194.111ZM204.229 208.35V208.719C204.229 210.102 204.404 211.385 204.756 212.568C205.119 213.74 205.635 214.754 206.303 215.609C206.971 216.465 207.773 217.139 208.711 217.631C209.66 218.111 210.727 218.352 211.91 218.352C212.508 218.352 213.064 218.287 213.58 218.158C214.107 218.029 214.588 217.848 215.021 217.613C215.314 217.449 215.59 217.262 215.848 217.051C216.105 216.84 216.352 216.605 216.586 216.348V217.438C216.586 218.082 216.492 218.662 216.305 219.178C216.129 219.693 215.871 220.127 215.531 220.479C215.156 220.865 214.688 221.158 214.125 221.357C213.574 221.557 212.941 221.656 212.227 221.656C211.781 221.656 211.348 221.609 210.926 221.516C210.516 221.434 210.117 221.305 209.73 221.129C209.332 220.953 208.951 220.725 208.588 220.443C208.225 220.174 207.885 219.857 207.568 219.494L205.371 222.465C205.781 222.992 206.273 223.443 206.848 223.818C207.422 224.205 208.031 224.521 208.676 224.768C209.32 225.014 209.971 225.195 210.627 225.312C211.283 225.43 211.898 225.488 212.473 225.488C213.809 225.488 215.027 225.307 216.129 224.943C217.242 224.592 218.197 224.07 218.994 223.379C219.779 222.688 220.389 221.838 220.822 220.83C221.268 219.822 221.49 218.674 221.49 217.385V198.98H217.043L216.85 200.791C216.615 200.498 216.357 200.234 216.076 200C215.795 199.754 215.49 199.543 215.162 199.367C214.729 199.121 214.242 198.939 213.703 198.822C213.176 198.693 212.59 198.629 211.945 198.629C210.75 198.629 209.678 198.863 208.729 199.332C207.779 199.801 206.971 200.463 206.303 201.318C205.635 202.174 205.119 203.199 204.756 204.395C204.404 205.59 204.229 206.908 204.229 208.35ZM209.133 208.719V208.35C209.133 207.553 209.215 206.809 209.379 206.117C209.543 205.414 209.795 204.799 210.135 204.271C210.463 203.756 210.879 203.352 211.383 203.059C211.887 202.754 212.484 202.602 213.176 202.602C213.551 202.602 213.896 202.637 214.213 202.707C214.541 202.777 214.84 202.877 215.109 203.006C215.426 203.158 215.707 203.357 215.953 203.604C216.199 203.85 216.41 204.137 216.586 204.465V212.516C216.422 212.809 216.229 213.072 216.006 213.307C215.783 213.541 215.525 213.74 215.232 213.904C214.951 214.057 214.635 214.174 214.283 214.256C213.943 214.338 213.562 214.379 213.141 214.379C212.449 214.379 211.852 214.232 211.348 213.939C210.844 213.646 210.428 213.242 210.1 212.727C209.771 212.223 209.525 211.631 209.361 210.951C209.209 210.26 209.133 209.516 209.133 208.719ZM226.342 218H231.246V204.482C231.41 204.225 231.592 203.99 231.791 203.779C231.99 203.568 232.213 203.387 232.459 203.234C232.764 203.023 233.109 202.865 233.496 202.76C233.895 202.654 234.328 202.602 234.797 202.602C235.359 202.602 235.863 202.66 236.309 202.777C236.754 202.883 237.135 203.076 237.451 203.357C237.768 203.639 238.008 204.025 238.172 204.518C238.348 204.998 238.436 205.613 238.436 206.363V218H243.322V206.293C243.322 204.91 243.158 203.738 242.83 202.777C242.514 201.805 242.068 201.008 241.494 200.387C240.908 199.777 240.217 199.332 239.42 199.051C238.623 198.77 237.744 198.629 236.783 198.629C236.033 198.629 235.324 198.734 234.656 198.945C233.988 199.156 233.373 199.461 232.811 199.859C232.482 200.094 232.172 200.357 231.879 200.65C231.586 200.943 231.316 201.266 231.07 201.617L230.771 198.98H226.342V218ZM270.498 192.406V196.396H275.367V214.027H270.498V218H285.299V214.027H280.307V196.396H285.299V192.406H270.498ZM291.205 218H296.109V204.482C296.273 204.225 296.455 203.99 296.654 203.779C296.854 203.568 297.076 203.387 297.322 203.234C297.627 203.023 297.973 202.865 298.359 202.76C298.758 202.654 299.191 202.602 299.66 202.602C300.223 202.602 300.727 202.66 301.172 202.777C301.617 202.883 301.998 203.076 302.314 203.357C302.631 203.639 302.871 204.025 303.035 204.518C303.211 204.998 303.299 205.613 303.299 206.363V218H308.186V206.293C308.186 204.91 308.021 203.738 307.693 202.777C307.377 201.805 306.932 201.008 306.357 200.387C305.771 199.777 305.08 199.332 304.283 199.051C303.486 198.77 302.607 198.629 301.646 198.629C300.896 198.629 300.188 198.734 299.52 198.945C298.852 199.156 298.236 199.461 297.674 199.859C297.346 200.094 297.035 200.357 296.742 200.65C296.449 200.943 296.18 201.266 295.934 201.617L295.635 198.98H291.205V218Z" fill="black"/>
<rect x="151.5" y="244.5" width="189" height="29" rx="3.5" fill="white" stroke="#D9D9D9"/>
<rect x="168.5" y="291.5" width="189" height="29" rx="3.5" fill="white" stroke="#D9D9D9"/>
<rect x="159" y="338" width="110" height="30" rx="4" fill="#2E8EFF"/>
<path d="M200.121 356.08H204.164V357H198.99V348.469H200.121V356.08ZM204.99 353.771C204.99 353.15 205.111 352.592 205.354 352.096C205.6 351.6 205.939 351.217 206.373 350.947C206.811 350.678 207.309 350.543 207.867 350.543C208.73 350.543 209.428 350.842 209.959 351.439C210.494 352.037 210.762 352.832 210.762 353.824V353.9C210.762 354.518 210.643 355.072 210.404 355.564C210.17 356.053 209.832 356.434 209.391 356.707C208.953 356.98 208.449 357.117 207.879 357.117C207.02 357.117 206.322 356.818 205.787 356.221C205.256 355.623 204.99 354.832 204.99 353.848V353.771ZM206.08 353.9C206.08 354.604 206.242 355.168 206.566 355.594C206.895 356.02 207.332 356.232 207.879 356.232C208.43 356.232 208.867 356.018 209.191 355.588C209.516 355.154 209.678 354.549 209.678 353.771C209.678 353.076 209.512 352.514 209.18 352.084C208.852 351.65 208.414 351.434 207.867 351.434C207.332 351.434 206.9 351.646 206.572 352.072C206.244 352.498 206.08 353.107 206.08 353.9ZM211.863 353.777C211.863 352.789 212.092 352.004 212.549 351.422C213.006 350.836 213.611 350.543 214.365 350.543C215.139 350.543 215.742 350.816 216.176 351.363L216.229 350.66H217.219V356.848C217.219 357.668 216.975 358.314 216.486 358.787C216.002 359.26 215.35 359.496 214.529 359.496C214.072 359.496 213.625 359.398 213.188 359.203C212.75 359.008 212.416 358.74 212.186 358.4L212.748 357.75C213.213 358.324 213.781 358.611 214.453 358.611C214.98 358.611 215.391 358.463 215.684 358.166C215.98 357.869 216.129 357.451 216.129 356.912V356.367C215.695 356.867 215.104 357.117 214.354 357.117C213.611 357.117 213.01 356.818 212.549 356.221C212.092 355.623 211.863 354.809 211.863 353.777ZM212.953 353.9C212.953 354.615 213.1 355.178 213.393 355.588C213.686 355.994 214.096 356.197 214.623 356.197C215.307 356.197 215.809 355.887 216.129 355.266V352.371C215.797 351.766 215.299 351.463 214.635 351.463C214.107 351.463 213.695 351.668 213.398 352.078C213.102 352.488 212.953 353.096 212.953 353.9ZM220.037 357H218.953V350.66H220.037V357ZM218.865 348.979C218.865 348.803 218.918 348.654 219.023 348.533C219.133 348.412 219.293 348.352 219.504 348.352C219.715 348.352 219.875 348.412 219.984 348.533C220.094 348.654 220.148 348.803 220.148 348.979C220.148 349.154 220.094 349.301 219.984 349.418C219.875 349.535 219.715 349.594 219.504 349.594C219.293 349.594 219.133 349.535 219.023 349.418C218.918 349.301 218.865 349.154 218.865 348.979ZM222.803 350.66L222.838 351.457C223.322 350.848 223.955 350.543 224.736 350.543C226.076 350.543 226.752 351.299 226.764 352.811V357H225.68V352.805C225.676 352.348 225.57 352.01 225.363 351.791C225.16 351.572 224.842 351.463 224.408 351.463C224.057 351.463 223.748 351.557 223.482 351.744C223.217 351.932 223.01 352.178 222.861 352.482V357H221.777V350.66H222.803Z" fill="white"/>
<path d="M292.695 346.232H289.115V350H287.99V341.469H293.275V342.395H289.115V345.312H292.695V346.232ZM294.037 346.771C294.037 346.15 294.158 345.592 294.4 345.096C294.646 344.6 294.986 344.217 295.42 343.947C295.857 343.678 296.355 343.543 296.914 343.543C297.777 343.543 298.475 343.842 299.006 344.439C299.541 345.037 299.809 345.832 299.809 346.824V346.9C299.809 347.518 299.689 348.072 299.451 348.564C299.217 349.053 298.879 349.434 298.438 349.707C298 349.98 297.496 350.117 296.926 350.117C296.066 350.117 295.369 349.818 294.834 349.221C294.303 348.623 294.037 347.832 294.037 346.848V346.771ZM295.127 346.9C295.127 347.604 295.289 348.168 295.613 348.594C295.941 349.02 296.379 349.232 296.926 349.232C297.477 349.232 297.914 349.018 298.238 348.588C298.562 348.154 298.725 347.549 298.725 346.771C298.725 346.076 298.559 345.514 298.227 345.084C297.898 344.65 297.461 344.434 296.914 344.434C296.379 344.434 295.947 344.646 295.619 345.072C295.291 345.498 295.127 346.107 295.127 346.9ZM304.232 344.633C304.068 344.605 303.891 344.592 303.699 344.592C302.988 344.592 302.506 344.895 302.252 345.5V350H301.168V343.66H302.223L302.24 344.393C302.596 343.826 303.1 343.543 303.752 343.543C303.963 343.543 304.123 343.57 304.232 343.625V344.633ZM304.859 346.777C304.859 345.789 305.088 345.004 305.545 344.422C306.002 343.836 306.607 343.543 307.361 343.543C308.135 343.543 308.738 343.816 309.172 344.363L309.225 343.66H310.215V349.848C310.215 350.668 309.971 351.314 309.482 351.787C308.998 352.26 308.346 352.496 307.525 352.496C307.068 352.496 306.621 352.398 306.184 352.203C305.746 352.008 305.412 351.74 305.182 351.4L305.744 350.75C306.209 351.324 306.777 351.611 307.449 351.611C307.977 351.611 308.387 351.463 308.68 351.166C308.977 350.869 309.125 350.451 309.125 349.912V349.367C308.691 349.867 308.1 350.117 307.35 350.117C306.607 350.117 306.006 349.818 305.545 349.221C305.088 348.623 304.859 347.809 304.859 346.777ZM305.949 346.9C305.949 347.615 306.096 348.178 306.389 348.588C306.682 348.994 307.092 349.197 307.619 349.197C308.303 349.197 308.805 348.887 309.125 348.266V345.371C308.793 344.766 308.295 344.463 307.631 344.463C307.104 344.463 306.691 344.668 306.395 345.078C306.098 345.488 305.949 346.096 305.949 346.9ZM314.486 350.117C313.627 350.117 312.928 349.836 312.389 349.273C311.85 348.707 311.58 347.951 311.58 347.006V346.807C311.58 346.178 311.699 345.617 311.938 345.125C312.18 344.629 312.516 344.242 312.945 343.965C313.379 343.684 313.848 343.543 314.352 343.543C315.176 343.543 315.816 343.814 316.273 344.357C316.73 344.9 316.959 345.678 316.959 346.689V347.141H312.664C312.68 347.766 312.861 348.271 313.209 348.658C313.561 349.041 314.006 349.232 314.545 349.232C314.928 349.232 315.252 349.154 315.518 348.998C315.783 348.842 316.016 348.635 316.215 348.377L316.877 348.893C316.346 349.709 315.549 350.117 314.486 350.117ZM314.352 344.434C313.914 344.434 313.547 344.594 313.25 344.914C312.953 345.23 312.77 345.676 312.699 346.25H315.875V346.168C315.844 345.617 315.695 345.191 315.43 344.891C315.164 344.586 314.805 344.434 314.352 344.434ZM319.689 342.125V343.66H320.873V344.498H319.689V348.43C319.689 348.684 319.742 348.875 319.848 349.004C319.953 349.129 320.133 349.191 320.387 349.191C320.512 349.191 320.684 349.168 320.902 349.121V350C320.617 350.078 320.34 350.117 320.07 350.117C319.586 350.117 319.221 349.971 318.975 349.678C318.729 349.385 318.605 348.969 318.605 348.43V344.498H317.451V343.66H318.605V342.125H319.689ZM289.115 360.66V364H287.99V355.469H291.137C292.07 355.469 292.801 355.707 293.328 356.184C293.859 356.66 294.125 357.291 294.125 358.076C294.125 358.904 293.865 359.543 293.346 359.992C292.83 360.438 292.09 360.66 291.125 360.66H289.115ZM289.115 359.74H291.137C291.738 359.74 292.199 359.6 292.52 359.318C292.84 359.033 293 358.623 293 358.088C293 357.58 292.84 357.174 292.52 356.869C292.199 356.564 291.76 356.406 291.201 356.395H289.115V359.74ZM299.234 364C299.172 363.875 299.121 363.652 299.082 363.332C298.578 363.855 297.977 364.117 297.277 364.117C296.652 364.117 296.139 363.941 295.736 363.59C295.338 363.234 295.139 362.785 295.139 362.242C295.139 361.582 295.389 361.07 295.889 360.707C296.393 360.34 297.1 360.156 298.01 360.156H299.064V359.658C299.064 359.279 298.951 358.979 298.725 358.756C298.498 358.529 298.164 358.416 297.723 358.416C297.336 358.416 297.012 358.514 296.75 358.709C296.488 358.904 296.357 359.141 296.357 359.418H295.268C295.268 359.102 295.379 358.797 295.602 358.504C295.828 358.207 296.133 357.973 296.516 357.801C296.902 357.629 297.326 357.543 297.787 357.543C298.518 357.543 299.09 357.727 299.504 358.094C299.918 358.457 300.133 358.959 300.148 359.6V362.518C300.148 363.1 300.223 363.562 300.371 363.906V364H299.234ZM297.436 363.174C297.775 363.174 298.098 363.086 298.402 362.91C298.707 362.734 298.928 362.506 299.064 362.225V360.924H298.215C296.887 360.924 296.223 361.312 296.223 362.09C296.223 362.43 296.336 362.695 296.562 362.887C296.789 363.078 297.08 363.174 297.436 363.174ZM305.539 362.318C305.539 362.025 305.428 361.799 305.205 361.639C304.986 361.475 304.602 361.334 304.051 361.217C303.504 361.1 303.068 360.959 302.744 360.795C302.424 360.631 302.186 360.436 302.029 360.209C301.877 359.982 301.801 359.713 301.801 359.4C301.801 358.881 302.02 358.441 302.457 358.082C302.898 357.723 303.461 357.543 304.145 357.543C304.863 357.543 305.445 357.729 305.891 358.1C306.34 358.471 306.564 358.945 306.564 359.523H305.475C305.475 359.227 305.348 358.971 305.094 358.756C304.844 358.541 304.527 358.434 304.145 358.434C303.75 358.434 303.441 358.52 303.219 358.691C302.996 358.863 302.885 359.088 302.885 359.365C302.885 359.627 302.988 359.824 303.195 359.957C303.402 360.09 303.775 360.217 304.314 360.338C304.857 360.459 305.297 360.604 305.633 360.771C305.969 360.939 306.217 361.143 306.377 361.381C306.541 361.615 306.623 361.902 306.623 362.242C306.623 362.809 306.396 363.264 305.943 363.607C305.49 363.947 304.902 364.117 304.18 364.117C303.672 364.117 303.223 364.027 302.832 363.848C302.441 363.668 302.135 363.418 301.912 363.098C301.693 362.773 301.584 362.424 301.584 362.049H302.668C302.688 362.412 302.832 362.701 303.102 362.916C303.375 363.127 303.734 363.232 304.18 363.232C304.59 363.232 304.918 363.15 305.164 362.986C305.414 362.818 305.539 362.596 305.539 362.318ZM311.727 362.318C311.727 362.025 311.615 361.799 311.393 361.639C311.174 361.475 310.789 361.334 310.238 361.217C309.691 361.1 309.256 360.959 308.932 360.795C308.611 360.631 308.373 360.436 308.217 360.209C308.064 359.982 307.988 359.713 307.988 359.4C307.988 358.881 308.207 358.441 308.645 358.082C309.086 357.723 309.648 357.543 310.332 357.543C311.051 357.543 311.633 357.729 312.078 358.1C312.527 358.471 312.752 358.945 312.752 359.523H311.662C311.662 359.227 311.535 358.971 311.281 358.756C311.031 358.541 310.715 358.434 310.332 358.434C309.938 358.434 309.629 358.52 309.406 358.691C309.184 358.863 309.072 359.088 309.072 359.365C309.072 359.627 309.176 359.824 309.383 359.957C309.59 360.09 309.963 360.217 310.502 360.338C311.045 360.459 311.484 360.604 311.82 360.771C312.156 360.939 312.404 361.143 312.564 361.381C312.729 361.615 312.811 361.902 312.811 362.242C312.811 362.809 312.584 363.264 312.131 363.607C311.678 363.947 311.09 364.117 310.367 364.117C309.859 364.117 309.41 364.027 309.02 363.848C308.629 363.668 308.322 363.418 308.1 363.098C307.881 362.773 307.771 362.424 307.771 362.049H308.855C308.875 362.412 309.02 362.701 309.289 362.916C309.562 363.127 309.922 363.232 310.367 363.232C310.777 363.232 311.105 363.15 311.352 362.986C311.602 362.818 311.727 362.596 311.727 362.318ZM319.836 362.506L321.055 357.66H322.139L320.293 364H319.414L317.873 359.195L316.373 364H315.494L313.654 357.66H314.732L315.98 362.406L317.457 357.66H318.33L319.836 362.506ZM322.959 360.771C322.959 360.15 323.08 359.592 323.322 359.096C323.568 358.6 323.908 358.217 324.342 357.947C324.779 357.678 325.277 357.543 325.836 357.543C326.699 357.543 327.396 357.842 327.928 358.439C328.463 359.037 328.73 359.832 328.73 360.824V360.9C328.73 361.518 328.611 362.072 328.373 362.564C328.139 363.053 327.801 363.434 327.359 363.707C326.922 363.98 326.418 364.117 325.848 364.117C324.988 364.117 324.291 363.818 323.756 363.221C323.225 362.623 322.959 361.832 322.959 360.848V360.771ZM324.049 360.9C324.049 361.604 324.211 362.168 324.535 362.594C324.863 363.02 325.301 363.232 325.848 363.232C326.398 363.232 326.836 363.018 327.16 362.588C327.484 362.154 327.646 361.549 327.646 360.771C327.646 360.076 327.48 359.514 327.148 359.084C326.82 358.65 326.383 358.434 325.836 358.434C325.301 358.434 324.869 358.646 324.541 359.072C324.213 359.498 324.049 360.107 324.049 360.9ZM333.154 358.633C332.99 358.605 332.812 358.592 332.621 358.592C331.91 358.592 331.428 358.895 331.174 359.5V364H330.09V357.66H331.145L331.162 358.393C331.518 357.826 332.021 357.543 332.674 357.543C332.885 357.543 333.045 357.57 333.154 357.625V358.633ZM333.775 360.777C333.775 359.805 334.006 359.023 334.467 358.434C334.928 357.84 335.531 357.543 336.277 357.543C337.02 357.543 337.607 357.797 338.041 358.305V355H339.125V364H338.129L338.076 363.32C337.643 363.852 337.039 364.117 336.266 364.117C335.531 364.117 334.932 363.816 334.467 363.215C334.006 362.613 333.775 361.828 333.775 360.859V360.777ZM334.859 360.9C334.859 361.619 335.008 362.182 335.305 362.588C335.602 362.994 336.012 363.197 336.535 363.197C337.223 363.197 337.725 362.889 338.041 362.271V359.359C337.717 358.762 337.219 358.463 336.547 358.463C336.016 358.463 335.602 358.668 335.305 359.078C335.008 359.488 334.859 360.096 334.859 360.9ZM342.084 361.598C342.092 361.133 342.145 360.766 342.242 360.496C342.34 360.227 342.539 359.928 342.84 359.6L343.607 358.809C343.936 358.438 344.1 358.039 344.1 357.613C344.1 357.203 343.992 356.883 343.777 356.652C343.562 356.418 343.25 356.301 342.84 356.301C342.441 356.301 342.121 356.406 341.879 356.617C341.637 356.828 341.516 357.111 341.516 357.467H340.432C340.439 356.834 340.664 356.324 341.105 355.938C341.551 355.547 342.129 355.352 342.84 355.352C343.578 355.352 344.152 355.551 344.562 355.949C344.977 356.344 345.184 356.887 345.184 357.578C345.184 358.262 344.867 358.936 344.234 359.6L343.596 360.232C343.311 360.549 343.168 361.004 343.168 361.598H342.084ZM342.037 363.455C342.037 363.279 342.09 363.133 342.195 363.016C342.305 362.895 342.465 362.834 342.676 362.834C342.887 362.834 343.047 362.895 343.156 363.016C343.266 363.133 343.32 363.279 343.32 363.455C343.32 363.631 343.266 363.777 343.156 363.895C343.047 364.008 342.887 364.064 342.676 364.064C342.465 364.064 342.305 364.008 342.195 363.895C342.09 363.777 342.037 363.631 342.037 363.455Z" fill="#239CF4"/>
<path d="M187.812 259.057H184.115V262.08H188.41V263H182.99V254.469H188.352V255.395H184.115V258.137H187.812V259.057ZM190.66 256.66L190.689 257.363C191.154 256.816 191.781 256.543 192.57 256.543C193.457 256.543 194.061 256.883 194.381 257.562C194.592 257.258 194.865 257.012 195.201 256.824C195.541 256.637 195.941 256.543 196.402 256.543C197.793 256.543 198.5 257.279 198.523 258.752V263H197.439V258.816C197.439 258.363 197.336 258.025 197.129 257.803C196.922 257.576 196.574 257.463 196.086 257.463C195.684 257.463 195.35 257.584 195.084 257.826C194.818 258.064 194.664 258.387 194.621 258.793V263H193.531V258.846C193.531 257.924 193.08 257.463 192.178 257.463C191.467 257.463 190.98 257.766 190.719 258.371V263H189.635V256.66H190.66ZM204.078 263C204.016 262.875 203.965 262.652 203.926 262.332C203.422 262.855 202.82 263.117 202.121 263.117C201.496 263.117 200.982 262.941 200.58 262.59C200.182 262.234 199.982 261.785 199.982 261.242C199.982 260.582 200.232 260.07 200.732 259.707C201.236 259.34 201.943 259.156 202.854 259.156H203.908V258.658C203.908 258.279 203.795 257.979 203.568 257.756C203.342 257.529 203.008 257.416 202.566 257.416C202.18 257.416 201.855 257.514 201.594 257.709C201.332 257.904 201.201 258.141 201.201 258.418H200.111C200.111 258.102 200.223 257.797 200.445 257.504C200.672 257.207 200.977 256.973 201.359 256.801C201.746 256.629 202.17 256.543 202.631 256.543C203.361 256.543 203.934 256.727 204.348 257.094C204.762 257.457 204.977 257.959 204.992 258.6V261.518C204.992 262.1 205.066 262.562 205.215 262.906V263H204.078ZM202.279 262.174C202.619 262.174 202.941 262.086 203.246 261.91C203.551 261.734 203.771 261.506 203.908 261.225V259.924H203.059C201.73 259.924 201.066 260.312 201.066 261.09C201.066 261.43 201.18 261.695 201.406 261.887C201.633 262.078 201.924 262.174 202.279 262.174ZM207.869 263H206.785V256.66H207.869V263ZM206.697 254.979C206.697 254.803 206.75 254.654 206.855 254.533C206.965 254.412 207.125 254.352 207.336 254.352C207.547 254.352 207.707 254.412 207.816 254.533C207.926 254.654 207.98 254.803 207.98 254.979C207.98 255.154 207.926 255.301 207.816 255.418C207.707 255.535 207.547 255.594 207.336 255.594C207.125 255.594 206.965 255.535 206.855 255.418C206.75 255.301 206.697 255.154 206.697 254.979ZM210.787 263H209.703V254H210.787V263ZM220.385 260.773H216.811L216.008 263H214.848L218.105 254.469H219.09L222.354 263H221.199L220.385 260.773ZM217.15 259.848H220.051L218.598 255.857L217.15 259.848ZM223.068 259.777C223.068 258.805 223.299 258.023 223.76 257.434C224.221 256.84 224.824 256.543 225.57 256.543C226.312 256.543 226.9 256.797 227.334 257.305V254H228.418V263H227.422L227.369 262.32C226.936 262.852 226.332 263.117 225.559 263.117C224.824 263.117 224.225 262.816 223.76 262.215C223.299 261.613 223.068 260.828 223.068 259.859V259.777ZM224.152 259.9C224.152 260.619 224.301 261.182 224.598 261.588C224.895 261.994 225.305 262.197 225.828 262.197C226.516 262.197 227.018 261.889 227.334 261.271V258.359C227.01 257.762 226.512 257.463 225.84 257.463C225.309 257.463 224.895 257.668 224.598 258.078C224.301 258.488 224.152 259.096 224.152 259.9ZM229.842 259.777C229.842 258.805 230.072 258.023 230.533 257.434C230.994 256.84 231.598 256.543 232.344 256.543C233.086 256.543 233.674 256.797 234.107 257.305V254H235.191V263H234.195L234.143 262.32C233.709 262.852 233.105 263.117 232.332 263.117C231.598 263.117 230.998 262.816 230.533 262.215C230.072 261.613 229.842 260.828 229.842 259.859V259.777ZM230.926 259.9C230.926 260.619 231.074 261.182 231.371 261.588C231.668 261.994 232.078 262.197 232.602 262.197C233.289 262.197 233.791 261.889 234.107 261.271V258.359C233.783 257.762 233.285 257.463 232.613 257.463C232.082 257.463 231.668 257.668 231.371 258.078C231.074 258.488 230.926 259.096 230.926 259.9ZM239.943 257.633C239.779 257.605 239.602 257.592 239.41 257.592C238.699 257.592 238.217 257.895 237.963 258.5V263H236.879V256.66H237.934L237.951 257.393C238.307 256.826 238.811 256.543 239.463 256.543C239.674 256.543 239.834 256.57 239.943 256.625V257.633ZM243.459 263.117C242.6 263.117 241.9 262.836 241.361 262.273C240.822 261.707 240.553 260.951 240.553 260.006V259.807C240.553 259.178 240.672 258.617 240.91 258.125C241.152 257.629 241.488 257.242 241.918 256.965C242.352 256.684 242.82 256.543 243.324 256.543C244.148 256.543 244.789 256.814 245.246 257.357C245.703 257.9 245.932 258.678 245.932 259.689V260.141H241.637C241.652 260.766 241.834 261.271 242.182 261.658C242.533 262.041 242.979 262.232 243.518 262.232C243.9 262.232 244.225 262.154 244.49 261.998C244.756 261.842 244.988 261.635 245.188 261.377L245.85 261.893C245.318 262.709 244.521 263.117 243.459 263.117ZM243.324 257.434C242.887 257.434 242.52 257.594 242.223 257.914C241.926 258.23 241.742 258.676 241.672 259.25H244.848V259.168C244.816 258.617 244.668 258.191 244.402 257.891C244.137 257.586 243.777 257.434 243.324 257.434ZM250.883 261.318C250.883 261.025 250.771 260.799 250.549 260.639C250.33 260.475 249.945 260.334 249.395 260.217C248.848 260.1 248.412 259.959 248.088 259.795C247.768 259.631 247.529 259.436 247.373 259.209C247.221 258.982 247.145 258.713 247.145 258.4C247.145 257.881 247.363 257.441 247.801 257.082C248.242 256.723 248.805 256.543 249.488 256.543C250.207 256.543 250.789 256.729 251.234 257.1C251.684 257.471 251.908 257.945 251.908 258.523H250.818C250.818 258.227 250.691 257.971 250.438 257.756C250.188 257.541 249.871 257.434 249.488 257.434C249.094 257.434 248.785 257.52 248.562 257.691C248.34 257.863 248.229 258.088 248.229 258.365C248.229 258.627 248.332 258.824 248.539 258.957C248.746 259.09 249.119 259.217 249.658 259.338C250.201 259.459 250.641 259.604 250.977 259.771C251.312 259.939 251.561 260.143 251.721 260.381C251.885 260.615 251.967 260.902 251.967 261.242C251.967 261.809 251.74 262.264 251.287 262.607C250.834 262.947 250.246 263.117 249.523 263.117C249.016 263.117 248.566 263.027 248.176 262.848C247.785 262.668 247.479 262.418 247.256 262.098C247.037 261.773 246.928 261.424 246.928 261.049H248.012C248.031 261.412 248.176 261.701 248.445 261.916C248.719 262.127 249.078 262.232 249.523 262.232C249.934 262.232 250.262 262.15 250.508 261.986C250.758 261.818 250.883 261.596 250.883 261.318ZM257.07 261.318C257.07 261.025 256.959 260.799 256.736 260.639C256.518 260.475 256.133 260.334 255.582 260.217C255.035 260.1 254.6 259.959 254.275 259.795C253.955 259.631 253.717 259.436 253.561 259.209C253.408 258.982 253.332 258.713 253.332 258.4C253.332 257.881 253.551 257.441 253.988 257.082C254.43 256.723 254.992 256.543 255.676 256.543C256.395 256.543 256.977 256.729 257.422 257.1C257.871 257.471 258.096 257.945 258.096 258.523H257.006C257.006 258.227 256.879 257.971 256.625 257.756C256.375 257.541 256.059 257.434 255.676 257.434C255.281 257.434 254.973 257.52 254.75 257.691C254.527 257.863 254.416 258.088 254.416 258.365C254.416 258.627 254.52 258.824 254.727 258.957C254.934 259.09 255.307 259.217 255.846 259.338C256.389 259.459 256.828 259.604 257.164 259.771C257.5 259.939 257.748 260.143 257.908 260.381C258.072 260.615 258.154 260.902 258.154 261.242C258.154 261.809 257.928 262.264 257.475 262.607C257.021 262.947 256.434 263.117 255.711 263.117C255.203 263.117 254.754 263.027 254.363 262.848C253.973 262.668 253.666 262.418 253.443 262.098C253.225 261.773 253.115 261.424 253.115 261.049H254.199C254.219 261.412 254.363 261.701 254.633 261.916C254.906 262.127 255.266 262.232 255.711 262.232C256.121 262.232 256.449 262.15 256.695 261.986C256.945 261.818 257.07 261.596 257.07 261.318Z" fill="#9A9A9A"/>
<path d="M194.115 306.66V310H192.99V301.469H196.137C197.07 301.469 197.801 301.707 198.328 302.184C198.859 302.66 199.125 303.291 199.125 304.076C199.125 304.904 198.865 305.543 198.346 305.992C197.83 306.438 197.09 306.66 196.125 306.66H194.115ZM194.115 305.74H196.137C196.738 305.74 197.199 305.6 197.52 305.318C197.84 305.033 198 304.623 198 304.088C198 303.58 197.84 303.174 197.52 302.869C197.199 302.564 196.76 302.406 196.201 302.395H194.115V305.74ZM204.234 310C204.172 309.875 204.121 309.652 204.082 309.332C203.578 309.855 202.977 310.117 202.277 310.117C201.652 310.117 201.139 309.941 200.736 309.59C200.338 309.234 200.139 308.785 200.139 308.242C200.139 307.582 200.389 307.07 200.889 306.707C201.393 306.34 202.1 306.156 203.01 306.156H204.064V305.658C204.064 305.279 203.951 304.979 203.725 304.756C203.498 304.529 203.164 304.416 202.723 304.416C202.336 304.416 202.012 304.514 201.75 304.709C201.488 304.904 201.357 305.141 201.357 305.418H200.268C200.268 305.102 200.379 304.797 200.602 304.504C200.828 304.207 201.133 303.973 201.516 303.801C201.902 303.629 202.326 303.543 202.787 303.543C203.518 303.543 204.09 303.727 204.504 304.094C204.918 304.457 205.133 304.959 205.148 305.6V308.518C205.148 309.1 205.223 309.562 205.371 309.906V310H204.234ZM202.436 309.174C202.775 309.174 203.098 309.086 203.402 308.91C203.707 308.734 203.928 308.506 204.064 308.225V306.924H203.215C201.887 306.924 201.223 307.312 201.223 308.09C201.223 308.43 201.336 308.695 201.562 308.887C201.789 309.078 202.08 309.174 202.436 309.174ZM210.539 308.318C210.539 308.025 210.428 307.799 210.205 307.639C209.986 307.475 209.602 307.334 209.051 307.217C208.504 307.1 208.068 306.959 207.744 306.795C207.424 306.631 207.186 306.436 207.029 306.209C206.877 305.982 206.801 305.713 206.801 305.4C206.801 304.881 207.02 304.441 207.457 304.082C207.898 303.723 208.461 303.543 209.145 303.543C209.863 303.543 210.445 303.729 210.891 304.1C211.34 304.471 211.564 304.945 211.564 305.523H210.475C210.475 305.227 210.348 304.971 210.094 304.756C209.844 304.541 209.527 304.434 209.145 304.434C208.75 304.434 208.441 304.52 208.219 304.691C207.996 304.863 207.885 305.088 207.885 305.365C207.885 305.627 207.988 305.824 208.195 305.957C208.402 306.09 208.775 306.217 209.314 306.338C209.857 306.459 210.297 306.604 210.633 306.771C210.969 306.939 211.217 307.143 211.377 307.381C211.541 307.615 211.623 307.902 211.623 308.242C211.623 308.809 211.396 309.264 210.943 309.607C210.49 309.947 209.902 310.117 209.18 310.117C208.672 310.117 208.223 310.027 207.832 309.848C207.441 309.668 207.135 309.418 206.912 309.098C206.693 308.773 206.584 308.424 206.584 308.049H207.668C207.688 308.412 207.832 308.701 208.102 308.916C208.375 309.127 208.734 309.232 209.18 309.232C209.59 309.232 209.918 309.15 210.164 308.986C210.414 308.818 210.539 308.596 210.539 308.318ZM216.727 308.318C216.727 308.025 216.615 307.799 216.393 307.639C216.174 307.475 215.789 307.334 215.238 307.217C214.691 307.1 214.256 306.959 213.932 306.795C213.611 306.631 213.373 306.436 213.217 306.209C213.064 305.982 212.988 305.713 212.988 305.4C212.988 304.881 213.207 304.441 213.645 304.082C214.086 303.723 214.648 303.543 215.332 303.543C216.051 303.543 216.633 303.729 217.078 304.1C217.527 304.471 217.752 304.945 217.752 305.523H216.662C216.662 305.227 216.535 304.971 216.281 304.756C216.031 304.541 215.715 304.434 215.332 304.434C214.938 304.434 214.629 304.52 214.406 304.691C214.184 304.863 214.072 305.088 214.072 305.365C214.072 305.627 214.176 305.824 214.383 305.957C214.59 306.09 214.963 306.217 215.502 306.338C216.045 306.459 216.484 306.604 216.82 306.771C217.156 306.939 217.404 307.143 217.564 307.381C217.729 307.615 217.811 307.902 217.811 308.242C217.811 308.809 217.584 309.264 217.131 309.607C216.678 309.947 216.09 310.117 215.367 310.117C214.859 310.117 214.41 310.027 214.02 309.848C213.629 309.668 213.322 309.418 213.1 309.098C212.881 308.773 212.771 308.424 212.771 308.049H213.855C213.875 308.412 214.02 308.701 214.289 308.916C214.562 309.127 214.922 309.232 215.367 309.232C215.777 309.232 216.105 309.15 216.352 308.986C216.602 308.818 216.727 308.596 216.727 308.318ZM224.836 308.506L226.055 303.66H227.139L225.293 310H224.414L222.873 305.195L221.373 310H220.494L218.654 303.66H219.732L220.98 308.406L222.457 303.66H223.33L224.836 308.506ZM227.959 306.771C227.959 306.15 228.08 305.592 228.322 305.096C228.568 304.6 228.908 304.217 229.342 303.947C229.779 303.678 230.277 303.543 230.836 303.543C231.699 303.543 232.396 303.842 232.928 304.439C233.463 305.037 233.73 305.832 233.73 306.824V306.9C233.73 307.518 233.611 308.072 233.373 308.564C233.139 309.053 232.801 309.434 232.359 309.707C231.922 309.98 231.418 310.117 230.848 310.117C229.988 310.117 229.291 309.818 228.756 309.221C228.225 308.623 227.959 307.832 227.959 306.848V306.771ZM229.049 306.9C229.049 307.604 229.211 308.168 229.535 308.594C229.863 309.02 230.301 309.232 230.848 309.232C231.398 309.232 231.836 309.018 232.16 308.588C232.484 308.154 232.646 307.549 232.646 306.771C232.646 306.076 232.48 305.514 232.148 305.084C231.82 304.65 231.383 304.434 230.836 304.434C230.301 304.434 229.869 304.646 229.541 305.072C229.213 305.498 229.049 306.107 229.049 306.9ZM238.154 304.633C237.99 304.605 237.812 304.592 237.621 304.592C236.91 304.592 236.428 304.895 236.174 305.5V310H235.09V303.66H236.145L236.162 304.393C236.518 303.826 237.021 303.543 237.674 303.543C237.885 303.543 238.045 303.57 238.154 303.625V304.633ZM238.775 306.777C238.775 305.805 239.006 305.023 239.467 304.434C239.928 303.84 240.531 303.543 241.277 303.543C242.02 303.543 242.607 303.797 243.041 304.305V301H244.125V310H243.129L243.076 309.32C242.643 309.852 242.039 310.117 241.266 310.117C240.531 310.117 239.932 309.816 239.467 309.215C239.006 308.613 238.775 307.828 238.775 306.859V306.777ZM239.859 306.9C239.859 307.619 240.008 308.182 240.305 308.588C240.602 308.994 241.012 309.197 241.535 309.197C242.223 309.197 242.725 308.889 243.041 308.271V305.359C242.717 304.762 242.219 304.463 241.547 304.463C241.016 304.463 240.602 304.668 240.305 305.078C240.008 305.488 239.859 306.096 239.859 306.9Z" fill="#9A9A9A"/>
<path d="M387.453 268.247L369.62 265.089L351.406 314.243L320.305 360.576C318.116 360.638 315.995 361.351 314.212 362.625C312.43 363.899 311.068 365.675 310.3 367.726C309.532 369.777 309.393 372.011 309.901 374.142C310.408 376.273 311.539 378.204 313.15 379.689C314.76 381.174 316.777 382.145 318.941 382.479C321.106 382.812 323.322 382.493 325.304 381.561C327.287 380.63 328.947 379.128 330.072 377.249C331.197 375.37 331.737 373.198 331.622 371.01L369.607 327.218L387.453 268.247Z" fill="#FFB7B7"/>
<path d="M448.488 207C448.488 224.673 432.147 222 411.988 222C391.83 222 375.488 224.673 375.488 207C375.488 189.327 383.471 158 411.988 158C441.488 158 448.488 189.327 448.488 207Z" fill="#2F2E41"/>
<path d="M515.594 360.763L483.382 305.346L468.382 255.118L450.382 257.118L464.382 317.118L500.24 364.299C499.118 366.147 498.565 368.285 498.652 370.446C498.738 372.606 499.46 374.693 500.726 376.446C501.992 378.198 503.747 379.539 505.771 380.299C507.795 381.06 509.999 381.206 512.106 380.721C514.213 380.236 516.13 379.14 517.618 377.571C519.105 376.002 520.097 374.029 520.47 371.899C520.842 369.769 520.578 367.577 519.711 365.596C518.844 363.616 517.412 361.935 515.594 360.763V360.763Z" fill="#FFB7B7"/>
<path d="M483.634 449L520.634 550H535.854L509.744 445.378L483.634 449Z" fill="#FFB7B7"/>
<path d="M402.634 454.5L365.634 555.5H350.413L376.523 450.878L402.634 454.5Z" fill="#FFB7B7"/>
<path d="M440.634 235C440.634 235 455.634 230 459.634 237C463.634 244 473.634 266 473.634 266L453.634 269L471.634 314C471.634 314 496.634 333 502.634 376C508.634 419 514.634 454 514.634 454C514.634 454 410.634 471 370.634 464C370.634 464 373.634 443 381.634 442C375.634 436 383.539 431 383.539 431L401.634 366L405.634 334C405.634 334 398.667 301.277 389.634 295C380.6 288.723 383.634 271 383.634 271L365.634 272C365.634 272 367.634 240 376.634 240H387.634L440.634 235Z" fill="#2F2E41"/>
<path d="M537.73 563.09L498.199 563.089V562.589C498.199 558.508 499.82 554.595 502.706 551.709C505.591 548.824 509.505 547.203 513.585 547.203H513.586L537.73 547.203L537.73 563.09Z" fill="#2F2E41"/>
<path d="M369.73 563.09L330.199 563.089V562.589C330.199 558.508 331.82 554.595 334.706 551.709C337.591 548.824 341.505 547.203 345.585 547.203H345.586L369.73 547.203L369.73 563.09Z" fill="#2F2E41"/>
<path d="M413.595 220.183C427.159 220.183 438.156 209.187 438.156 195.622C438.156 182.057 427.159 171.061 413.595 171.061C400.03 171.061 389.033 182.057 389.033 195.622C389.033 209.187 400.03 220.183 413.595 220.183Z" fill="#FFB7B7"/>
<path d="M383.488 195H393.203L397.488 183L398.345 195H402.988L405.488 188L405.988 195H440.488C440.488 188.104 437.749 181.491 432.873 176.615C427.997 171.739 421.384 169 414.488 169H409.488C402.593 169 395.979 171.739 391.103 176.615C386.227 181.491 383.488 188.104 383.488 195V195Z" fill="#2F2E41"/>
<defs>
<filter id="filter0_d" x="101" y="38" width="317" height="535" filterUnits="userSpaceOnUse" color-interpolation-filters="sRGB">
<feFlood flood-opacity="0" result="BackgroundImageFix"/>
<feColorMatrix in="SourceAlpha" type="matrix" values="0 0 0 0 0 0 0 0 0 0 0 0 0 0 0 0 0 0 127 0"/>
<feOffset dx="10" dy="10"/>
<feColorMatrix type="matrix" values="0 0 0 0 0 0 0 0 0 0 0 0 0 0 0 0 0 0 1 0"/>
<feBlend mode="normal" in2="BackgroundImageFix" result="effect1_dropShadow"/>
<feBlend mode="normal" in="SourceGraphic" in2="effect1_dropShadow" result="shape"/>
</filter>
<linearGradient id="paint0_linear" x1="150.48" y1="81.2726" x2="139.368" y2="79.0715" gradientUnits="userSpaceOnUse">
<stop stop-color="#00EAFF"/>
<stop offset="0.216667" stop-color="#3C8CE7"/>
</linearGradient>
<linearGradient id="paint1_linear" x1="122" y1="58" x2="146.065" y2="86.577" gradientUnits="userSpaceOnUse">
<stop stop-color="#00CDDF"/>
<stop offset="1" stop-color="#006EEB"/>
</linearGradient>
</defs>
</svg>
