<svg width="551" height="633" viewBox="0 0 551 633" fill="none" xmlns="http://www.w3.org/2000/svg">
<path fill-rule="evenodd" clip-rule="evenodd" d="M315.655 48.9688C376.29 47.8314 437.489 -21.6106 489.663 8.61359C542.074 38.9745 527.428 119.114 537.997 177.77C545.555 219.712 500.203 260.719 502 303.271C503.886 347.916 560.285 391.638 548.857 434.902C535.55 485.28 513.054 535.212 472.572 568.988C429.064 605.289 371.383 642.075 315.655 629.473C258.203 616.482 247.441 534.055 195.71 506.381C142.018 477.659 48.3559 523.224 18.9457 470.749C-10.793 417.688 84.7625 363.71 81.8744 303.271C78.7496 237.878 -11.6226 190.501 2.49622 126.508C15.5698 67.2523 85.3542 29.9526 145.46 15.0702C202.558 0.932591 256.766 50.0734 315.655 48.9688Z" fill="#FFFDEF" stroke="#E8E8E8"/>
<g filter="url(#filter0_d)">
<rect x="101" y="38" width="307" height="525" rx="35" fill="white"/>
<rect x="101.5" y="38.5" width="306" height="524" rx="34.5" stroke="#C4C4C4"/>
</g>
<circle cx="321" cy="71" r="14.5" fill="white" stroke="#DCDCDC"/>
<circle cx="370" cy="523" r="20" fill="#50ABFF"/>
<path d="M352.121 74.0801H356.164V75H350.99V66.4688H352.121V74.0801ZM356.99 71.7715C356.99 71.1504 357.111 70.5918 357.354 70.0957C357.6 69.5996 357.939 69.2168 358.373 68.9473C358.811 68.6777 359.309 68.543 359.867 68.543C360.73 68.543 361.428 68.8418 361.959 69.4395C362.494 70.0371 362.762 70.832 362.762 71.8242V71.9004C362.762 72.5176 362.643 73.0723 362.404 73.5645C362.17 74.0527 361.832 74.4336 361.391 74.707C360.953 74.9805 360.449 75.1172 359.879 75.1172C359.02 75.1172 358.322 74.8184 357.787 74.2207C357.256 73.623 356.99 72.832 356.99 71.8477V71.7715ZM358.08 71.9004C358.08 72.6035 358.242 73.168 358.566 73.5938C358.895 74.0195 359.332 74.2324 359.879 74.2324C360.43 74.2324 360.867 74.0176 361.191 73.5879C361.516 73.1543 361.678 72.5488 361.678 71.7715C361.678 71.0762 361.512 70.5137 361.18 70.084C360.852 69.6504 360.414 69.4336 359.867 69.4336C359.332 69.4336 358.9 69.6465 358.572 70.0723C358.244 70.498 358.08 71.1074 358.08 71.9004ZM363.863 71.7773C363.863 70.7891 364.092 70.0039 364.549 69.4219C365.006 68.8359 365.611 68.543 366.365 68.543C367.139 68.543 367.742 68.8164 368.176 69.3633L368.229 68.6602H369.219V74.8477C369.219 75.668 368.975 76.3145 368.486 76.7871C368.002 77.2598 367.35 77.4961 366.529 77.4961C366.072 77.4961 365.625 77.3984 365.188 77.2031C364.75 77.0078 364.416 76.7402 364.186 76.4004L364.748 75.75C365.213 76.3242 365.781 76.6113 366.453 76.6113C366.98 76.6113 367.391 76.4629 367.684 76.166C367.98 75.8691 368.129 75.4512 368.129 74.9121V74.3672C367.695 74.8672 367.104 75.1172 366.354 75.1172C365.611 75.1172 365.01 74.8184 364.549 74.2207C364.092 73.623 363.863 72.8086 363.863 71.7773ZM364.953 71.9004C364.953 72.6152 365.1 73.1777 365.393 73.5879C365.686 73.9941 366.096 74.1973 366.623 74.1973C367.307 74.1973 367.809 73.8867 368.129 73.2656V70.3711C367.797 69.7656 367.299 69.4629 366.635 69.4629C366.107 69.4629 365.695 69.668 365.398 70.0781C365.102 70.4883 364.953 71.0957 364.953 71.9004ZM370.572 71.7715C370.572 71.1504 370.693 70.5918 370.936 70.0957C371.182 69.5996 371.521 69.2168 371.955 68.9473C372.393 68.6777 372.891 68.543 373.449 68.543C374.312 68.543 375.01 68.8418 375.541 69.4395C376.076 70.0371 376.344 70.832 376.344 71.8242V71.9004C376.344 72.5176 376.225 73.0723 375.986 73.5645C375.752 74.0527 375.414 74.4336 374.973 74.707C374.535 74.9805 374.031 75.1172 373.461 75.1172C372.602 75.1172 371.904 74.8184 371.369 74.2207C370.838 73.623 370.572 72.832 370.572 71.8477V71.7715ZM371.662 71.9004C371.662 72.6035 371.824 73.168 372.148 73.5938C372.477 74.0195 372.914 74.2324 373.461 74.2324C374.012 74.2324 374.449 74.0176 374.773 73.5879C375.098 73.1543 375.26 72.5488 375.26 71.7715C375.26 71.0762 375.094 70.5137 374.762 70.084C374.434 69.6504 373.996 69.4336 373.449 69.4336C372.914 69.4336 372.482 69.6465 372.154 70.0723C371.826 70.498 371.662 71.1074 371.662 71.9004ZM381.617 74.373C381.195 74.8691 380.576 75.1172 379.76 75.1172C379.084 75.1172 378.568 74.9219 378.213 74.5312C377.861 74.1367 377.684 73.5547 377.68 72.7852V68.6602H378.764V72.7559C378.764 73.7168 379.154 74.1973 379.936 74.1973C380.764 74.1973 381.314 73.8887 381.588 73.2715V68.6602H382.672V75H381.641L381.617 74.373ZM385.795 67.125V68.6602H386.979V69.498H385.795V73.4297C385.795 73.6836 385.848 73.875 385.953 74.0039C386.059 74.1289 386.238 74.1914 386.492 74.1914C386.617 74.1914 386.789 74.168 387.008 74.1211V75C386.723 75.0781 386.445 75.1172 386.176 75.1172C385.691 75.1172 385.326 74.9707 385.08 74.6777C384.834 74.3848 384.711 73.9688 384.711 73.4297V69.498H383.557V68.6602H384.711V67.125H385.795Z" fill="#8F8F8F"/>
<path d="M147.018 81.8866C147.07 82.6556 146.282 83.2016 145.581 82.8819L142.499 81.4773C141.78 81.1499 141.692 80.1645 142.341 79.7149L145.192 77.7405C145.841 77.291 146.733 77.7199 146.787 78.5076L147.018 81.8866Z" fill="url(#paint0_linear)"/>
<path d="M151 70.2105C151 76.9542 144.508 82.4211 136.5 82.4211C128.492 82.4211 122 76.9542 122 70.2105C122 63.4668 128.492 58 136.5 58C144.508 58 151 63.4668 151 70.2105Z" fill="url(#paint1_linear)"/>
<path d="M132.175 70.7193C132.175 71.9837 131.15 73.0087 129.886 73.0087C128.622 73.0087 127.596 71.9837 127.596 70.7193C127.596 69.4548 128.622 68.4298 129.886 68.4298C131.15 68.4298 132.175 69.4548 132.175 70.7193Z" fill="white"/>
<path d="M145.403 70.7193C145.403 71.9837 144.378 73.0087 143.114 73.0087C141.849 73.0087 140.824 71.9837 140.824 70.7193C140.824 69.4548 141.849 68.4298 143.114 68.4298C144.378 68.4298 145.403 69.4548 145.403 70.7193Z" fill="white"/>
<path d="M138.79 70.7193C138.79 71.9837 137.765 73.0087 136.5 73.0087C135.236 73.0087 134.211 71.9837 134.211 70.7193C134.211 69.4548 135.236 68.4298 136.5 68.4298C137.765 68.4298 138.79 69.4548 138.79 70.7193Z" fill="white"/>
<rect x="122.5" y="502.5" width="213" height="41" rx="20.5" fill="white" stroke="#E6E6E6"/>
<rect x="22.5" y="130.5" width="199" height="49" rx="24.5" fill="#E8E8E8" stroke="#D9D9D9"/>
<rect x="37" y="194" width="129" height="50" rx="25" fill="#DCDCDC"/>
<rect x="291" y="395" width="200" height="50" rx="25" fill="#50ABFF"/>
<path d="M151.885 520.395H149.143V528H148.023V520.395H145.287V519.469H151.885V520.395ZM154.633 526.412L156.109 521.66H157.27L154.721 528.979C154.326 530.033 153.699 530.561 152.84 530.561L152.635 530.543L152.23 530.467V529.588L152.523 529.611C152.891 529.611 153.176 529.537 153.379 529.389C153.586 529.24 153.756 528.969 153.889 528.574L154.129 527.93L151.867 521.66H153.051L154.633 526.412ZM163.598 524.9C163.598 525.865 163.377 526.643 162.936 527.232C162.494 527.822 161.896 528.117 161.143 528.117C160.373 528.117 159.768 527.873 159.326 527.385V530.438H158.242V521.66H159.232L159.285 522.363C159.727 521.816 160.34 521.543 161.125 521.543C161.887 521.543 162.488 521.83 162.93 522.404C163.375 522.979 163.598 523.777 163.598 524.801V524.9ZM162.514 524.777C162.514 524.062 162.361 523.498 162.057 523.084C161.752 522.67 161.334 522.463 160.803 522.463C160.146 522.463 159.654 522.754 159.326 523.336V526.365C159.65 526.943 160.146 527.232 160.814 527.232C161.334 527.232 161.746 527.027 162.051 526.617C162.359 526.203 162.514 525.59 162.514 524.777ZM167.611 528.117C166.752 528.117 166.053 527.836 165.514 527.273C164.975 526.707 164.705 525.951 164.705 525.006V524.807C164.705 524.178 164.824 523.617 165.062 523.125C165.305 522.629 165.641 522.242 166.07 521.965C166.504 521.684 166.973 521.543 167.477 521.543C168.301 521.543 168.941 521.814 169.398 522.357C169.855 522.9 170.084 523.678 170.084 524.689V525.141H165.789C165.805 525.766 165.986 526.271 166.334 526.658C166.686 527.041 167.131 527.232 167.67 527.232C168.053 527.232 168.377 527.154 168.643 526.998C168.908 526.842 169.141 526.635 169.34 526.377L170.002 526.893C169.471 527.709 168.674 528.117 167.611 528.117ZM167.477 522.434C167.039 522.434 166.672 522.594 166.375 522.914C166.078 523.23 165.895 523.676 165.824 524.25H169V524.168C168.969 523.617 168.82 523.191 168.555 522.891C168.289 522.586 167.93 522.434 167.477 522.434ZM175.34 521.66L175.369 522.363C175.834 521.816 176.461 521.543 177.25 521.543C178.137 521.543 178.74 521.883 179.061 522.562C179.271 522.258 179.545 522.012 179.881 521.824C180.221 521.637 180.621 521.543 181.082 521.543C182.473 521.543 183.18 522.279 183.203 523.752V528H182.119V523.816C182.119 523.363 182.016 523.025 181.809 522.803C181.602 522.576 181.254 522.463 180.766 522.463C180.363 522.463 180.029 522.584 179.764 522.826C179.498 523.064 179.344 523.387 179.301 523.793V528H178.211V523.846C178.211 522.924 177.76 522.463 176.857 522.463C176.146 522.463 175.66 522.766 175.398 523.371V528H174.314V521.66H175.34ZM187.475 528.117C186.615 528.117 185.916 527.836 185.377 527.273C184.838 526.707 184.568 525.951 184.568 525.006V524.807C184.568 524.178 184.688 523.617 184.926 523.125C185.168 522.629 185.504 522.242 185.934 521.965C186.367 521.684 186.836 521.543 187.34 521.543C188.164 521.543 188.805 521.814 189.262 522.357C189.719 522.9 189.947 523.678 189.947 524.689V525.141H185.652C185.668 525.766 185.85 526.271 186.197 526.658C186.549 527.041 186.994 527.232 187.533 527.232C187.916 527.232 188.24 527.154 188.506 526.998C188.771 526.842 189.004 526.635 189.203 526.377L189.865 526.893C189.334 527.709 188.537 528.117 187.475 528.117ZM187.34 522.434C186.902 522.434 186.535 522.594 186.238 522.914C185.941 523.23 185.758 523.676 185.688 524.25H188.863V524.168C188.832 523.617 188.684 523.191 188.418 522.891C188.152 522.586 187.793 522.434 187.34 522.434ZM194.898 526.318C194.898 526.025 194.787 525.799 194.564 525.639C194.346 525.475 193.961 525.334 193.41 525.217C192.863 525.1 192.428 524.959 192.104 524.795C191.783 524.631 191.545 524.436 191.389 524.209C191.236 523.982 191.16 523.713 191.16 523.4C191.16 522.881 191.379 522.441 191.816 522.082C192.258 521.723 192.82 521.543 193.504 521.543C194.223 521.543 194.805 521.729 195.25 522.1C195.699 522.471 195.924 522.945 195.924 523.523H194.834C194.834 523.227 194.707 522.971 194.453 522.756C194.203 522.541 193.887 522.434 193.504 522.434C193.109 522.434 192.801 522.52 192.578 522.691C192.355 522.863 192.244 523.088 192.244 523.365C192.244 523.627 192.348 523.824 192.555 523.957C192.762 524.09 193.135 524.217 193.674 524.338C194.217 524.459 194.656 524.604 194.992 524.771C195.328 524.939 195.576 525.143 195.736 525.381C195.9 525.615 195.982 525.902 195.982 526.242C195.982 526.809 195.756 527.264 195.303 527.607C194.85 527.947 194.262 528.117 193.539 528.117C193.031 528.117 192.582 528.027 192.191 527.848C191.801 527.668 191.494 527.418 191.271 527.098C191.053 526.773 190.943 526.424 190.943 526.049H192.027C192.047 526.412 192.191 526.701 192.461 526.916C192.734 527.127 193.094 527.232 193.539 527.232C193.949 527.232 194.277 527.15 194.523 526.986C194.773 526.818 194.898 526.596 194.898 526.318ZM201.086 526.318C201.086 526.025 200.975 525.799 200.752 525.639C200.533 525.475 200.148 525.334 199.598 525.217C199.051 525.1 198.615 524.959 198.291 524.795C197.971 524.631 197.732 524.436 197.576 524.209C197.424 523.982 197.348 523.713 197.348 523.4C197.348 522.881 197.566 522.441 198.004 522.082C198.445 521.723 199.008 521.543 199.691 521.543C200.41 521.543 200.992 521.729 201.438 522.1C201.887 522.471 202.111 522.945 202.111 523.523H201.021C201.021 523.227 200.895 522.971 200.641 522.756C200.391 522.541 200.074 522.434 199.691 522.434C199.297 522.434 198.988 522.52 198.766 522.691C198.543 522.863 198.432 523.088 198.432 523.365C198.432 523.627 198.535 523.824 198.742 523.957C198.949 524.09 199.322 524.217 199.861 524.338C200.404 524.459 200.844 524.604 201.18 524.771C201.516 524.939 201.764 525.143 201.924 525.381C202.088 525.615 202.17 525.902 202.17 526.242C202.17 526.809 201.943 527.264 201.49 527.607C201.037 527.947 200.449 528.117 199.727 528.117C199.219 528.117 198.77 528.027 198.379 527.848C197.988 527.668 197.682 527.418 197.459 527.098C197.24 526.773 197.131 526.424 197.131 526.049H198.215C198.234 526.412 198.379 526.701 198.648 526.916C198.922 527.127 199.281 527.232 199.727 527.232C200.137 527.232 200.465 527.15 200.711 526.986C200.961 526.818 201.086 526.596 201.086 526.318ZM207.496 528C207.434 527.875 207.383 527.652 207.344 527.332C206.84 527.855 206.238 528.117 205.539 528.117C204.914 528.117 204.4 527.941 203.998 527.59C203.6 527.234 203.4 526.785 203.4 526.242C203.4 525.582 203.65 525.07 204.15 524.707C204.654 524.34 205.361 524.156 206.271 524.156H207.326V523.658C207.326 523.279 207.213 522.979 206.986 522.756C206.76 522.529 206.426 522.416 205.984 522.416C205.598 522.416 205.273 522.514 205.012 522.709C204.75 522.904 204.619 523.141 204.619 523.418H203.529C203.529 523.102 203.641 522.797 203.863 522.504C204.09 522.207 204.395 521.973 204.777 521.801C205.164 521.629 205.588 521.543 206.049 521.543C206.779 521.543 207.352 521.727 207.766 522.094C208.18 522.457 208.395 522.959 208.41 523.6V526.518C208.41 527.1 208.484 527.562 208.633 527.906V528H207.496ZM205.697 527.174C206.037 527.174 206.359 527.086 206.664 526.91C206.969 526.734 207.189 526.506 207.326 526.225V524.924H206.477C205.148 524.924 204.484 525.312 204.484 526.09C204.484 526.43 204.598 526.695 204.824 526.887C205.051 527.078 205.342 527.174 205.697 527.174ZM209.852 524.777C209.852 523.789 210.08 523.004 210.537 522.422C210.994 521.836 211.6 521.543 212.354 521.543C213.127 521.543 213.73 521.816 214.164 522.363L214.217 521.66H215.207V527.848C215.207 528.668 214.963 529.314 214.475 529.787C213.99 530.26 213.338 530.496 212.518 530.496C212.061 530.496 211.613 530.398 211.176 530.203C210.738 530.008 210.404 529.74 210.174 529.4L210.736 528.75C211.201 529.324 211.77 529.611 212.441 529.611C212.969 529.611 213.379 529.463 213.672 529.166C213.969 528.869 214.117 528.451 214.117 527.912V527.367C213.684 527.867 213.092 528.117 212.342 528.117C211.6 528.117 210.998 527.818 210.537 527.221C210.08 526.623 209.852 525.809 209.852 524.777ZM210.941 524.9C210.941 525.615 211.088 526.178 211.381 526.588C211.674 526.994 212.084 527.197 212.611 527.197C213.295 527.197 213.797 526.887 214.117 526.266V523.371C213.785 522.766 213.287 522.463 212.623 522.463C212.096 522.463 211.684 522.668 211.387 523.078C211.09 523.488 210.941 524.096 210.941 524.9ZM219.479 528.117C218.619 528.117 217.92 527.836 217.381 527.273C216.842 526.707 216.572 525.951 216.572 525.006V524.807C216.572 524.178 216.691 523.617 216.93 523.125C217.172 522.629 217.508 522.242 217.938 521.965C218.371 521.684 218.84 521.543 219.344 521.543C220.168 521.543 220.809 521.814 221.266 522.357C221.723 522.9 221.951 523.678 221.951 524.689V525.141H217.656C217.672 525.766 217.854 526.271 218.201 526.658C218.553 527.041 218.998 527.232 219.537 527.232C219.92 527.232 220.244 527.154 220.51 526.998C220.775 526.842 221.008 526.635 221.207 526.377L221.869 526.893C221.338 527.709 220.541 528.117 219.479 528.117ZM219.344 522.434C218.906 522.434 218.539 522.594 218.242 522.914C217.945 523.23 217.762 523.676 217.691 524.25H220.867V524.168C220.836 523.617 220.688 523.191 220.422 522.891C220.156 522.586 219.797 522.434 219.344 522.434ZM227.271 522.428C227.752 521.838 228.377 521.543 229.146 521.543C230.486 521.543 231.162 522.299 231.174 523.811V528H230.09V523.805C230.086 523.348 229.98 523.01 229.773 522.791C229.57 522.572 229.252 522.463 228.818 522.463C228.467 522.463 228.158 522.557 227.893 522.744C227.627 522.932 227.42 523.178 227.271 523.482V528H226.188V519H227.271V522.428ZM235.428 528.117C234.568 528.117 233.869 527.836 233.33 527.273C232.791 526.707 232.521 525.951 232.521 525.006V524.807C232.521 524.178 232.641 523.617 232.879 523.125C233.121 522.629 233.457 522.242 233.887 521.965C234.32 521.684 234.789 521.543 235.293 521.543C236.117 521.543 236.758 521.814 237.215 522.357C237.672 522.9 237.9 523.678 237.9 524.689V525.141H233.605C233.621 525.766 233.803 526.271 234.15 526.658C234.502 527.041 234.947 527.232 235.486 527.232C235.869 527.232 236.193 527.154 236.459 526.998C236.725 526.842 236.957 526.635 237.156 526.377L237.818 526.893C237.287 527.709 236.49 528.117 235.428 528.117ZM235.293 522.434C234.855 522.434 234.488 522.594 234.191 522.914C233.895 523.23 233.711 523.676 233.641 524.25H236.816V524.168C236.785 523.617 236.637 523.191 236.371 522.891C236.105 522.586 235.746 522.434 235.293 522.434ZM242.225 522.633C242.061 522.605 241.883 522.592 241.691 522.592C240.98 522.592 240.498 522.895 240.244 523.5V528H239.16V521.66H240.215L240.232 522.393C240.588 521.826 241.092 521.543 241.744 521.543C241.955 521.543 242.115 521.57 242.225 521.625V522.633ZM245.74 528.117C244.881 528.117 244.182 527.836 243.643 527.273C243.104 526.707 242.834 525.951 242.834 525.006V524.807C242.834 524.178 242.953 523.617 243.191 523.125C243.434 522.629 243.77 522.242 244.199 521.965C244.633 521.684 245.102 521.543 245.605 521.543C246.43 521.543 247.07 521.814 247.527 522.357C247.984 522.9 248.213 523.678 248.213 524.689V525.141H243.918C243.934 525.766 244.115 526.271 244.463 526.658C244.814 527.041 245.26 527.232 245.799 527.232C246.182 527.232 246.506 527.154 246.771 526.998C247.037 526.842 247.27 526.635 247.469 526.377L248.131 526.893C247.6 527.709 246.803 528.117 245.74 528.117ZM245.605 522.434C245.168 522.434 244.801 522.594 244.504 522.914C244.207 523.23 244.023 523.676 243.953 524.25H247.129V524.168C247.098 523.617 246.949 523.191 246.684 522.891C246.418 522.586 246.059 522.434 245.605 522.434ZM252.473 527.432C252.473 527.244 252.527 527.088 252.637 526.963C252.75 526.838 252.918 526.775 253.141 526.775C253.363 526.775 253.531 526.838 253.645 526.963C253.762 527.088 253.82 527.244 253.82 527.432C253.82 527.611 253.762 527.762 253.645 527.883C253.531 528.004 253.363 528.064 253.141 528.064C252.918 528.064 252.75 528.004 252.637 527.883C252.527 527.762 252.473 527.611 252.473 527.432ZM255.637 527.432C255.637 527.244 255.691 527.088 255.801 526.963C255.914 526.838 256.082 526.775 256.305 526.775C256.527 526.775 256.695 526.838 256.809 526.963C256.926 527.088 256.984 527.244 256.984 527.432C256.984 527.611 256.926 527.762 256.809 527.883C256.695 528.004 256.527 528.064 256.305 528.064C256.082 528.064 255.914 528.004 255.801 527.883C255.691 527.762 255.637 527.611 255.637 527.432ZM258.801 527.432C258.801 527.244 258.855 527.088 258.965 526.963C259.078 526.838 259.246 526.775 259.469 526.775C259.691 526.775 259.859 526.838 259.973 526.963C260.09 527.088 260.148 527.244 260.148 527.432C260.148 527.611 260.09 527.762 259.973 527.883C259.859 528.004 259.691 528.064 259.469 528.064C259.246 528.064 259.078 528.004 258.965 527.883C258.855 527.762 258.801 527.611 258.801 527.432Z" fill="#C5C5C5"/>
<rect x="329" y="256" width="124.121" height="128" rx="35" fill="#50ABFF"/>
<path d="M376.5 516.5L368.25 524.75" stroke="white" stroke-width="2" stroke-linecap="round" stroke-linejoin="round"/>
<path d="M376.5 516.5L371.25 531.5L368.25 524.75L361.5 521.75L376.5 516.5Z" stroke="white" stroke-width="2" stroke-linecap="round" stroke-linejoin="round"/>
<path d="M86.2078 189.314L93.4848 183.929C93.4848 183.929 108.171 182.996 107.906 197.227L131.406 264.418L176.488 279.015L170.413 307.704L106.628 285.493L74.2299 236.408L86.2078 189.314Z" fill="#2F2E41"/>
<path d="M55.7881 176.666L57.3127 169.698C57.3127 169.698 79.7379 162.73 82.2469 176.666H55.7881Z" fill="#E6E6E6"/>
<path d="M98.8265 560.332L113.528 560.331L120.522 508.498L98.8235 508.499L98.8265 560.332Z" fill="#9F616A"/>
<path d="M95.0761 555.944L124.029 555.943H124.03C128.924 555.943 133.617 557.72 137.077 560.883C140.537 564.046 142.481 568.335 142.481 572.808V573.356L95.0769 573.358L95.0761 555.944Z" fill="#2F2E41"/>
<path d="M27.9547 560.332L42.6566 560.331L49.6506 508.498L27.9517 508.499L27.9547 560.332Z" fill="#9F616A"/>
<path d="M24.2043 555.944L53.1574 555.943H53.1585C58.052 555.943 62.7449 557.72 66.2051 560.883C69.6653 564.046 71.6093 568.335 71.6097 572.808V573.356L24.2052 573.358L24.2043 555.944Z" fill="#2F2E41"/>
<path d="M34.4436 205.931L17.6723 204.537L7 250.526L8.52475 292.334L25.296 348.077L48.1653 335.535L35.9683 278.397L34.4436 205.931Z" fill="#2F2E41"/>
<path d="M23.828 343.199L27.5822 372.464L31.1086 440.75L23.0089 542.51L51.9763 541.089L66.1749 435.177L74.8456 386.401L87.0426 442.144L94.6663 546.663L124.396 544.485V441.777L125.158 366.89L114.486 337.625L23.828 343.199Z" fill="#2F2E41"/>
<path d="M86.2805 178.059C86.2805 178.059 75.6082 164.124 55.7881 173.879L46.6404 185.027L17.6725 204.538L23.771 270.036L16.1479 352.258L124.396 350.864L106.101 268.643V180.847L86.2805 178.059Z" fill="#2F2E41"/>
<path opacity="0.25" d="M27.5822 227.669L18.8407 323.21L29.8693 271.43L27.5822 227.669Z" fill="black"/>
<path d="M209.546 307.774C207.99 308.258 206.336 308.423 204.702 308.259C203.068 308.095 201.493 307.606 200.089 306.825C198.684 306.045 197.483 304.992 196.572 303.742C195.66 302.491 195.06 301.073 194.812 299.588L169.867 293.953L169.916 279.261L205.022 287.671C207.779 287.457 210.527 288.175 212.745 289.689C214.962 291.203 216.495 293.408 217.053 295.886C217.61 298.364 217.154 300.943 215.771 303.134C214.387 305.325 212.173 306.976 209.546 307.774Z" fill="#9F616A"/>
<path d="M183.461 279.086L179.266 301.051L189.78 302.728L193.974 280.763L183.461 279.086Z" fill="#E6E6E6"/>
<path d="M83.9987 158.533C98.8353 151.12 104.288 134.116 96.1775 120.555C88.0671 106.994 69.465 102.01 54.6284 109.423C39.7919 116.836 34.3393 133.84 42.4496 147.401C50.56 160.962 69.1622 165.946 83.9987 158.533Z" fill="#9F616A"/>
<path d="M71.6005 158.664C64.1102 160.307 56.2189 159.348 49.4592 155.972C42.6994 152.595 37.5537 147.043 35.0214 140.394C32.489 133.744 32.7508 126.471 35.7558 119.988C38.7609 113.505 44.2947 108.274 51.2826 105.311C56.664 103.116 62.5489 102.15 68.4296 102.498C77.5859 102.938 86.4853 106.032 95.6509 105.804L96.9794 107.756L101.986 106.646L103.059 110.279L104.378 110.237C106.74 114.25 102.939 119.995 97.9542 119.946C95.9806 119.927 94.1145 119.176 92.1845 118.798C90.2546 118.42 87.9818 118.514 86.651 119.846C84.9215 121.578 85.6744 124.279 86.035 126.601C86.3956 128.922 85.4949 132.049 82.9312 132.125C81.6216 132.163 80.3761 131.305 79.0892 131.531C77.5904 131.793 76.8326 133.448 77.0514 134.828C77.4226 136.183 78.028 137.475 78.8447 138.655C82.5611 145.436 79.423 154.66 72.155 158.319" fill="#2F2E41"/>
<defs>
<filter id="filter0_d" x="101" y="38" width="317" height="535" filterUnits="userSpaceOnUse" color-interpolation-filters="sRGB">
<feFlood flood-opacity="0" result="BackgroundImageFix"/>
<feColorMatrix in="SourceAlpha" type="matrix" values="0 0 0 0 0 0 0 0 0 0 0 0 0 0 0 0 0 0 127 0"/>
<feOffset dx="10" dy="10"/>
<feColorMatrix type="matrix" values="0 0 0 0 0 0 0 0 0 0 0 0 0 0 0 0 0 0 1 0"/>
<feBlend mode="normal" in2="BackgroundImageFix" result="effect1_dropShadow"/>
<feBlend mode="normal" in="SourceGraphic" in2="effect1_dropShadow" result="shape"/>
</filter>
<linearGradient id="paint0_linear" x1="150.48" y1="81.2726" x2="139.368" y2="79.0715" gradientUnits="userSpaceOnUse">
<stop stop-color="#00EAFF"/>
<stop offset="0.216667" stop-color="#3C8CE7"/>
</linearGradient>
<linearGradient id="paint1_linear" x1="122" y1="58" x2="146.065" y2="86.577" gradientUnits="userSpaceOnUse">
<stop stop-color="#00CDDF"/>
<stop offset="1" stop-color="#006EEB"/>
</linearGradient>
</defs>
</svg>
