<svg width="629" height="633" viewBox="0 0 629 633" fill="none" xmlns="http://www.w3.org/2000/svg">
<path fill-rule="evenodd" clip-rule="evenodd" d="M393.655 48.9688C454.29 47.8314 515.489 -21.6106 567.663 8.61359C620.074 38.9745 605.428 119.114 615.997 177.77C623.555 219.712 578.203 260.719 580 303.271C581.886 347.916 638.285 391.638 626.857 434.902C613.55 485.28 591.054 535.212 550.572 568.988C507.064 605.289 449.383 642.075 393.655 629.473C336.203 616.482 325.441 534.055 273.71 506.381C220.018 477.659 126.356 523.224 96.9457 470.749C67.207 417.688 162.762 363.71 159.874 303.271C156.75 237.878 66.3774 190.501 80.4962 126.508C93.5698 67.2523 163.354 29.9526 223.46 15.0702C280.558 0.932591 334.766 50.0734 393.655 48.9688Z" fill="#FFFDEF" stroke="#E8E8E8"/>
<g filter="url(#filter0_d)">
<rect x="179" y="38" width="307" height="525" rx="35" fill="white"/>
<rect x="179.5" y="38.5" width="306" height="524" rx="34.5" stroke="#C4C4C4"/>
</g>
<circle cx="448" cy="523" r="20" fill="#50ABFF"/>
<rect x="416" y="59" width="50" height="23" rx="6" fill="#50ABFF"/>
<path d="M377.504 70.1973C376.539 69.9199 375.836 69.5801 375.395 69.1777C374.957 68.7715 374.738 68.2715 374.738 67.6777C374.738 67.0059 375.006 66.4512 375.541 66.0137C376.08 65.5723 376.779 65.3516 377.639 65.3516C378.225 65.3516 378.746 65.4648 379.203 65.6914C379.664 65.918 380.02 66.2305 380.27 66.6289C380.523 67.0273 380.65 67.4629 380.65 67.9355H379.52C379.52 67.4199 379.355 67.0156 379.027 66.7227C378.699 66.4258 378.236 66.2773 377.639 66.2773C377.084 66.2773 376.65 66.4004 376.338 66.6465C376.029 66.8887 375.875 67.2266 375.875 67.6602C375.875 68.0078 376.021 68.3027 376.314 68.5449C376.611 68.7832 377.113 69.002 377.82 69.2012C378.531 69.4004 379.086 69.6211 379.484 69.8633C379.887 70.1016 380.184 70.3809 380.375 70.7012C380.57 71.0215 380.668 71.3984 380.668 71.832C380.668 72.5234 380.398 73.0781 379.859 73.4961C379.32 73.9102 378.6 74.1172 377.697 74.1172C377.111 74.1172 376.564 74.0059 376.057 73.7832C375.549 73.5566 375.156 73.248 374.879 72.8574C374.605 72.4668 374.469 72.0234 374.469 71.5273H375.6C375.6 72.043 375.789 72.4512 376.168 72.752C376.551 73.0488 377.061 73.1973 377.697 73.1973C378.291 73.1973 378.746 73.0762 379.062 72.834C379.379 72.5918 379.537 72.2617 379.537 71.8438C379.537 71.4258 379.391 71.1035 379.098 70.877C378.805 70.6465 378.273 70.4199 377.504 70.1973ZM383.123 74H382.039V67.6602H383.123V74ZM381.951 65.9785C381.951 65.8027 382.004 65.6543 382.109 65.5332C382.219 65.4121 382.379 65.3516 382.59 65.3516C382.801 65.3516 382.961 65.4121 383.07 65.5332C383.18 65.6543 383.234 65.8027 383.234 65.9785C383.234 66.1543 383.18 66.3008 383.07 66.418C382.961 66.5352 382.801 66.5938 382.59 66.5938C382.379 66.5938 382.219 66.5352 382.109 66.418C382.004 66.3008 381.951 66.1543 381.951 65.9785ZM384.605 70.7773C384.605 69.7891 384.834 69.0039 385.291 68.4219C385.748 67.8359 386.354 67.543 387.107 67.543C387.881 67.543 388.484 67.8164 388.918 68.3633L388.971 67.6602H389.961V73.8477C389.961 74.668 389.717 75.3145 389.229 75.7871C388.744 76.2598 388.092 76.4961 387.271 76.4961C386.814 76.4961 386.367 76.3984 385.93 76.2031C385.492 76.0078 385.158 75.7402 384.928 75.4004L385.49 74.75C385.955 75.3242 386.523 75.6113 387.195 75.6113C387.723 75.6113 388.133 75.4629 388.426 75.166C388.723 74.8691 388.871 74.4512 388.871 73.9121V73.3672C388.438 73.8672 387.846 74.1172 387.096 74.1172C386.354 74.1172 385.752 73.8184 385.291 73.2207C384.834 72.623 384.605 71.8086 384.605 70.7773ZM385.695 70.9004C385.695 71.6152 385.842 72.1777 386.135 72.5879C386.428 72.9941 386.838 73.1973 387.365 73.1973C388.049 73.1973 388.551 72.8867 388.871 72.2656V69.3711C388.539 68.7656 388.041 68.4629 387.377 68.4629C386.85 68.4629 386.438 68.668 386.141 69.0781C385.844 69.4883 385.695 70.0957 385.695 70.9004ZM392.627 67.6602L392.662 68.457C393.146 67.8477 393.779 67.543 394.561 67.543C395.9 67.543 396.576 68.2988 396.588 69.8105V74H395.504V69.8047C395.5 69.3477 395.395 69.0098 395.188 68.791C394.984 68.5723 394.666 68.4629 394.232 68.4629C393.881 68.4629 393.572 68.5566 393.307 68.7441C393.041 68.9316 392.834 69.1777 392.686 69.4824V74H391.602V67.6602H392.627ZM402.576 74H401.451V65.4688H402.576V74ZM405.494 67.6602L405.529 68.457C406.014 67.8477 406.646 67.543 407.428 67.543C408.768 67.543 409.443 68.2988 409.455 69.8105V74H408.371V69.8047C408.367 69.3477 408.262 69.0098 408.055 68.791C407.852 68.5723 407.533 68.4629 407.1 68.4629C406.748 68.4629 406.439 68.5566 406.174 68.7441C405.908 68.9316 405.701 69.1777 405.553 69.4824V74H404.469V67.6602H405.494Z" fill="#8F8F8F"/>
<path d="M425.68 70.1973C424.715 69.9199 424.012 69.5801 423.57 69.1777C423.133 68.7715 422.914 68.2715 422.914 67.6777C422.914 67.0059 423.182 66.4512 423.717 66.0137C424.256 65.5723 424.955 65.3516 425.814 65.3516C426.4 65.3516 426.922 65.4648 427.379 65.6914C427.84 65.918 428.195 66.2305 428.445 66.6289C428.699 67.0273 428.826 67.4629 428.826 67.9355H427.695C427.695 67.4199 427.531 67.0156 427.203 66.7227C426.875 66.4258 426.412 66.2773 425.814 66.2773C425.26 66.2773 424.826 66.4004 424.514 66.6465C424.205 66.8887 424.051 67.2266 424.051 67.6602C424.051 68.0078 424.197 68.3027 424.49 68.5449C424.787 68.7832 425.289 69.002 425.996 69.2012C426.707 69.4004 427.262 69.6211 427.66 69.8633C428.062 70.1016 428.359 70.3809 428.551 70.7012C428.746 71.0215 428.844 71.3984 428.844 71.832C428.844 72.5234 428.574 73.0781 428.035 73.4961C427.496 73.9102 426.775 74.1172 425.873 74.1172C425.287 74.1172 424.74 74.0059 424.232 73.7832C423.725 73.5566 423.332 73.248 423.055 72.8574C422.781 72.4668 422.645 72.0234 422.645 71.5273H423.775C423.775 72.043 423.965 72.4512 424.344 72.752C424.727 73.0488 425.236 73.1973 425.873 73.1973C426.467 73.1973 426.922 73.0762 427.238 72.834C427.555 72.5918 427.713 72.2617 427.713 71.8438C427.713 71.4258 427.566 71.1035 427.273 70.877C426.98 70.6465 426.449 70.4199 425.68 70.1973ZM431.299 74H430.215V67.6602H431.299V74ZM430.127 65.9785C430.127 65.8027 430.18 65.6543 430.285 65.5332C430.395 65.4121 430.555 65.3516 430.766 65.3516C430.977 65.3516 431.137 65.4121 431.246 65.5332C431.355 65.6543 431.41 65.8027 431.41 65.9785C431.41 66.1543 431.355 66.3008 431.246 66.418C431.137 66.5352 430.977 66.5938 430.766 66.5938C430.555 66.5938 430.395 66.5352 430.285 66.418C430.18 66.3008 430.127 66.1543 430.127 65.9785ZM432.781 70.7773C432.781 69.7891 433.01 69.0039 433.467 68.4219C433.924 67.8359 434.529 67.543 435.283 67.543C436.057 67.543 436.66 67.8164 437.094 68.3633L437.146 67.6602H438.137V73.8477C438.137 74.668 437.893 75.3145 437.404 75.7871C436.92 76.2598 436.268 76.4961 435.447 76.4961C434.99 76.4961 434.543 76.3984 434.105 76.2031C433.668 76.0078 433.334 75.7402 433.104 75.4004L433.666 74.75C434.131 75.3242 434.699 75.6113 435.371 75.6113C435.898 75.6113 436.309 75.4629 436.602 75.166C436.898 74.8691 437.047 74.4512 437.047 73.9121V73.3672C436.613 73.8672 436.021 74.1172 435.271 74.1172C434.529 74.1172 433.928 73.8184 433.467 73.2207C433.01 72.623 432.781 71.8086 432.781 70.7773ZM433.871 70.9004C433.871 71.6152 434.018 72.1777 434.311 72.5879C434.604 72.9941 435.014 73.1973 435.541 73.1973C436.225 73.1973 436.727 72.8867 437.047 72.2656V69.3711C436.715 68.7656 436.217 68.4629 435.553 68.4629C435.025 68.4629 434.613 68.668 434.316 69.0781C434.02 69.4883 433.871 70.0957 433.871 70.9004ZM440.803 67.6602L440.838 68.457C441.322 67.8477 441.955 67.543 442.736 67.543C444.076 67.543 444.752 68.2988 444.764 69.8105V74H443.68V69.8047C443.676 69.3477 443.57 69.0098 443.363 68.791C443.16 68.5723 442.842 68.4629 442.408 68.4629C442.057 68.4629 441.748 68.5566 441.482 68.7441C441.217 68.9316 441.01 69.1777 440.861 69.4824V74H439.777V67.6602H440.803ZM452.574 65.4688V71.2695C452.57 72.0742 452.316 72.7324 451.812 73.2441C451.312 73.7559 450.633 74.043 449.773 74.1055L449.475 74.1172C448.541 74.1172 447.797 73.8652 447.242 73.3613C446.688 72.8574 446.406 72.1641 446.398 71.2812V65.4688H447.512V71.2461C447.512 71.8633 447.682 72.3438 448.021 72.6875C448.361 73.0273 448.846 73.1973 449.475 73.1973C450.111 73.1973 450.598 73.0273 450.934 72.6875C451.273 72.3477 451.443 71.8691 451.443 71.252V65.4688H452.574ZM459.535 70.9004C459.535 71.8652 459.314 72.6426 458.873 73.2324C458.432 73.8223 457.834 74.1172 457.08 74.1172C456.311 74.1172 455.705 73.873 455.264 73.3848V76.4375H454.18V67.6602H455.17L455.223 68.3633C455.664 67.8164 456.277 67.543 457.062 67.543C457.824 67.543 458.426 67.8301 458.867 68.4043C459.312 68.9785 459.535 69.7773 459.535 70.8008V70.9004ZM458.451 70.7773C458.451 70.0625 458.299 69.498 457.994 69.084C457.689 68.6699 457.271 68.4629 456.74 68.4629C456.084 68.4629 455.592 68.7539 455.264 69.3359V72.3652C455.588 72.9434 456.084 73.2324 456.752 73.2324C457.271 73.2324 457.684 73.0273 457.988 72.6172C458.297 72.2031 458.451 71.5898 458.451 70.7773Z" fill="white"/>
<path d="M225.018 81.8866C225.07 82.6556 224.282 83.2016 223.581 82.8819L220.499 81.4773C219.78 81.1499 219.692 80.1645 220.341 79.7149L223.192 77.7405C223.841 77.291 224.733 77.7199 224.787 78.5076L225.018 81.8866Z" fill="url(#paint0_linear)"/>
<path d="M229 70.2105C229 76.9542 222.508 82.4211 214.5 82.4211C206.492 82.4211 200 76.9542 200 70.2105C200 63.4668 206.492 58 214.5 58C222.508 58 229 63.4668 229 70.2105Z" fill="url(#paint1_linear)"/>
<path d="M210.175 70.7193C210.175 71.9837 209.15 73.0087 207.886 73.0087C206.622 73.0087 205.596 71.9837 205.596 70.7193C205.596 69.4548 206.622 68.4298 207.886 68.4298C209.15 68.4298 210.175 69.4548 210.175 70.7193Z" fill="white"/>
<path d="M223.403 70.7193C223.403 71.9837 222.378 73.0087 221.114 73.0087C219.849 73.0087 218.824 71.9837 218.824 70.7193C218.824 69.4548 219.849 68.4298 221.114 68.4298C222.378 68.4298 223.403 69.4548 223.403 70.7193Z" fill="white"/>
<path d="M216.79 70.7193C216.79 71.9837 215.765 73.0087 214.5 73.0087C213.236 73.0087 212.211 71.9837 212.211 70.7193C212.211 69.4548 213.236 68.4298 214.5 68.4298C215.765 68.4298 216.79 69.4548 216.79 70.7193Z" fill="white"/>
<path d="M252.592 211.32C252.592 211.777 252.498 212.199 252.311 212.586C252.123 212.961 251.854 213.283 251.502 213.553C251.15 213.822 250.717 214.033 250.201 214.186C249.697 214.338 249.117 214.414 248.461 214.414C247.723 214.414 247.043 214.332 246.422 214.168C245.812 214.004 245.291 213.746 244.857 213.395C244.412 213.043 244.066 212.592 243.82 212.041C243.574 211.49 243.439 210.828 243.416 210.055H238.564C238.564 211.379 238.816 212.533 239.32 213.518C239.836 214.502 240.533 215.357 241.412 216.084C242.338 216.822 243.422 217.385 244.664 217.771C245.918 218.146 247.184 218.334 248.461 218.334C249.762 218.334 250.963 218.182 252.064 217.877C253.166 217.561 254.115 217.098 254.912 216.488C255.709 215.891 256.33 215.158 256.775 214.291C257.232 213.412 257.461 212.41 257.461 211.285C257.461 209.984 257.162 208.836 256.564 207.84C255.967 206.844 255.164 205.971 254.156 205.221C253.488 204.764 252.756 204.359 251.959 204.008C251.162 203.656 250.324 203.357 249.445 203.111C248.625 202.889 247.887 202.648 247.23 202.391C246.586 202.133 246.035 201.846 245.578 201.529C245.121 201.225 244.77 200.879 244.523 200.492C244.289 200.105 244.172 199.672 244.172 199.191C244.172 198.734 244.26 198.312 244.436 197.926C244.623 197.527 244.893 197.182 245.244 196.889C245.596 196.607 246.023 196.391 246.527 196.238C247.043 196.074 247.629 195.992 248.285 195.992C249 195.992 249.621 196.092 250.148 196.291C250.688 196.479 251.139 196.742 251.502 197.082C251.854 197.434 252.117 197.85 252.293 198.33C252.48 198.811 252.586 199.338 252.609 199.912H257.426C257.426 198.764 257.203 197.709 256.758 196.748C256.312 195.787 255.691 194.955 254.895 194.252C254.098 193.561 253.143 193.021 252.029 192.635C250.928 192.248 249.709 192.055 248.373 192.055C247.084 192.055 245.889 192.225 244.787 192.564C243.686 192.893 242.73 193.367 241.922 193.988C241.113 194.609 240.48 195.359 240.023 196.238C239.566 197.117 239.338 198.096 239.338 199.174C239.338 200.111 239.508 200.979 239.848 201.775C240.199 202.572 240.715 203.299 241.395 203.955C242.074 204.611 242.947 205.215 244.014 205.766C245.092 206.316 246.34 206.785 247.758 207.172C248.672 207.418 249.434 207.688 250.043 207.98C250.664 208.262 251.168 208.572 251.555 208.912C251.93 209.264 252.193 209.639 252.346 210.037C252.51 210.436 252.592 210.863 252.592 211.32ZM262.4 198.98V202.971H267.814V214.027H262.4V218H277.904V214.027H272.754V198.98H262.4ZM267.463 194.111C267.463 194.486 267.527 194.838 267.656 195.166C267.797 195.482 267.99 195.752 268.236 195.975C268.482 196.209 268.775 196.391 269.115 196.52C269.467 196.648 269.854 196.713 270.275 196.713C271.143 196.713 271.828 196.473 272.332 195.992C272.848 195.5 273.105 194.873 273.105 194.111C273.105 193.35 272.848 192.729 272.332 192.248C271.828 191.756 271.143 191.51 270.275 191.51C269.854 191.51 269.467 191.574 269.115 191.703C268.775 191.832 268.482 192.008 268.236 192.23C267.99 192.465 267.797 192.746 267.656 193.074C267.527 193.391 267.463 193.736 267.463 194.111ZM282.229 208.35V208.719C282.229 210.102 282.404 211.385 282.756 212.568C283.119 213.74 283.635 214.754 284.303 215.609C284.971 216.465 285.773 217.139 286.711 217.631C287.66 218.111 288.727 218.352 289.91 218.352C290.508 218.352 291.064 218.287 291.58 218.158C292.107 218.029 292.588 217.848 293.021 217.613C293.314 217.449 293.59 217.262 293.848 217.051C294.105 216.84 294.352 216.605 294.586 216.348V217.438C294.586 218.082 294.492 218.662 294.305 219.178C294.129 219.693 293.871 220.127 293.531 220.479C293.156 220.865 292.688 221.158 292.125 221.357C291.574 221.557 290.941 221.656 290.227 221.656C289.781 221.656 289.348 221.609 288.926 221.516C288.516 221.434 288.117 221.305 287.73 221.129C287.332 220.953 286.951 220.725 286.588 220.443C286.225 220.174 285.885 219.857 285.568 219.494L283.371 222.465C283.781 222.992 284.273 223.443 284.848 223.818C285.422 224.205 286.031 224.521 286.676 224.768C287.32 225.014 287.971 225.195 288.627 225.312C289.283 225.43 289.898 225.488 290.473 225.488C291.809 225.488 293.027 225.307 294.129 224.943C295.242 224.592 296.197 224.07 296.994 223.379C297.779 222.688 298.389 221.838 298.822 220.83C299.268 219.822 299.49 218.674 299.49 217.385V198.98H295.043L294.85 200.791C294.615 200.498 294.357 200.234 294.076 200C293.795 199.754 293.49 199.543 293.162 199.367C292.729 199.121 292.242 198.939 291.703 198.822C291.176 198.693 290.59 198.629 289.945 198.629C288.75 198.629 287.678 198.863 286.729 199.332C285.779 199.801 284.971 200.463 284.303 201.318C283.635 202.174 283.119 203.199 282.756 204.395C282.404 205.59 282.229 206.908 282.229 208.35ZM287.133 208.719V208.35C287.133 207.553 287.215 206.809 287.379 206.117C287.543 205.414 287.795 204.799 288.135 204.271C288.463 203.756 288.879 203.352 289.383 203.059C289.887 202.754 290.484 202.602 291.176 202.602C291.551 202.602 291.896 202.637 292.213 202.707C292.541 202.777 292.84 202.877 293.109 203.006C293.426 203.158 293.707 203.357 293.953 203.604C294.199 203.85 294.41 204.137 294.586 204.465V212.516C294.422 212.809 294.229 213.072 294.006 213.307C293.783 213.541 293.525 213.74 293.232 213.904C292.951 214.057 292.635 214.174 292.283 214.256C291.943 214.338 291.562 214.379 291.141 214.379C290.449 214.379 289.852 214.232 289.348 213.939C288.844 213.646 288.428 213.242 288.1 212.727C287.771 212.223 287.525 211.631 287.361 210.951C287.209 210.26 287.133 209.516 287.133 208.719ZM304.342 218H309.246V204.482C309.41 204.225 309.592 203.99 309.791 203.779C309.99 203.568 310.213 203.387 310.459 203.234C310.764 203.023 311.109 202.865 311.496 202.76C311.895 202.654 312.328 202.602 312.797 202.602C313.359 202.602 313.863 202.66 314.309 202.777C314.754 202.883 315.135 203.076 315.451 203.357C315.768 203.639 316.008 204.025 316.172 204.518C316.348 204.998 316.436 205.613 316.436 206.363V218H321.322V206.293C321.322 204.91 321.158 203.738 320.83 202.777C320.514 201.805 320.068 201.008 319.494 200.387C318.908 199.777 318.217 199.332 317.42 199.051C316.623 198.77 315.744 198.629 314.783 198.629C314.033 198.629 313.324 198.734 312.656 198.945C311.988 199.156 311.373 199.461 310.811 199.859C310.482 200.094 310.172 200.357 309.879 200.65C309.586 200.943 309.316 201.266 309.07 201.617L308.771 198.98H304.342V218ZM364.459 192.406H359.555L359.537 209.369C359.525 210.201 359.438 210.934 359.273 211.566C359.109 212.199 358.863 212.727 358.535 213.148C358.23 213.559 357.844 213.869 357.375 214.08C356.918 214.279 356.391 214.379 355.793 214.379C355.242 214.379 354.756 214.285 354.334 214.098C353.912 213.898 353.555 213.605 353.262 213.219C352.945 212.797 352.705 212.264 352.541 211.619C352.389 210.975 352.307 210.225 352.295 209.369L352.277 192.406H347.338L347.32 209.369C347.32 210.799 347.52 212.076 347.918 213.201C348.328 214.314 348.902 215.252 349.641 216.014C350.379 216.775 351.264 217.355 352.295 217.754C353.338 218.152 354.504 218.352 355.793 218.352C357.164 218.352 358.383 218.152 359.449 217.754C360.527 217.355 361.441 216.77 362.191 215.996C362.93 215.234 363.492 214.297 363.879 213.184C364.277 212.07 364.477 210.799 364.477 209.369L364.459 192.406ZM369.275 225.312H374.162V216.348C374.385 216.594 374.619 216.816 374.865 217.016C375.111 217.215 375.369 217.396 375.639 217.561C376.096 217.818 376.588 218.012 377.115 218.141C377.654 218.281 378.24 218.352 378.873 218.352C380.068 218.352 381.129 218.105 382.055 217.613C382.98 217.121 383.76 216.441 384.393 215.574C385.014 214.719 385.482 213.699 385.799 212.516C386.127 211.332 386.291 210.049 386.291 208.666V208.297C386.291 206.855 386.127 205.543 385.799 204.359C385.482 203.164 385.008 202.139 384.375 201.283C383.742 200.439 382.963 199.789 382.037 199.332C381.111 198.863 380.045 198.629 378.838 198.629C378.252 198.629 377.701 198.693 377.186 198.822C376.682 198.939 376.219 199.109 375.797 199.332C375.445 199.52 375.117 199.742 374.812 200C374.508 200.246 374.227 200.527 373.969 200.844L373.793 198.98H369.275V225.312ZM381.404 208.297V208.666C381.404 209.451 381.334 210.195 381.193 210.898C381.053 211.59 380.83 212.199 380.525 212.727C380.221 213.254 379.822 213.67 379.33 213.975C378.85 214.279 378.264 214.432 377.572 214.432C377.139 214.432 376.746 214.391 376.395 214.309C376.043 214.215 375.732 214.086 375.463 213.922C375.182 213.746 374.93 213.535 374.707 213.289C374.496 213.043 374.314 212.768 374.162 212.463V204.518C374.326 204.189 374.52 203.902 374.742 203.656C374.977 203.41 375.246 203.205 375.551 203.041C375.82 202.9 376.119 202.795 376.447 202.725C376.775 202.643 377.139 202.602 377.537 202.602C378.229 202.602 378.814 202.748 379.295 203.041C379.787 203.334 380.191 203.732 380.508 204.236C380.812 204.752 381.035 205.361 381.176 206.064C381.328 206.756 381.404 207.5 381.404 208.297Z" fill="black"/>
<rect x="229.5" y="244.5" width="189" height="29" rx="3.5" fill="white" stroke="#D9D9D9"/>
<rect x="246.5" y="291.5" width="189" height="29" rx="3.5" fill="white" stroke="#D9D9D9"/>
<rect x="212.5" y="338.5" width="189" height="29" rx="3.5" fill="white" stroke="#D9D9D9"/>
<rect x="246" y="385" width="110" height="30" rx="4" fill="#2E8EFF"/>
<path d="M272.119 400.549H270.115V404H268.984V395.469H271.809C272.77 395.469 273.508 395.688 274.023 396.125C274.543 396.562 274.803 397.199 274.803 398.035C274.803 398.566 274.658 399.029 274.369 399.424C274.084 399.818 273.686 400.113 273.174 400.309L275.178 403.93V404H273.971L272.119 400.549ZM270.115 399.629H271.844C272.402 399.629 272.846 399.484 273.174 399.195C273.506 398.906 273.672 398.52 273.672 398.035C273.672 397.508 273.514 397.104 273.197 396.822C272.885 396.541 272.432 396.398 271.838 396.395H270.115V399.629ZM278.846 404.117C277.986 404.117 277.287 403.836 276.748 403.273C276.209 402.707 275.939 401.951 275.939 401.006V400.807C275.939 400.178 276.059 399.617 276.297 399.125C276.539 398.629 276.875 398.242 277.305 397.965C277.738 397.684 278.207 397.543 278.711 397.543C279.535 397.543 280.176 397.814 280.633 398.357C281.09 398.9 281.318 399.678 281.318 400.689V401.141H277.023C277.039 401.766 277.221 402.271 277.568 402.658C277.92 403.041 278.365 403.232 278.904 403.232C279.287 403.232 279.611 403.154 279.877 402.998C280.143 402.842 280.375 402.635 280.574 402.377L281.236 402.893C280.705 403.709 279.908 404.117 278.846 404.117ZM278.711 398.434C278.273 398.434 277.906 398.594 277.609 398.914C277.312 399.23 277.129 399.676 277.059 400.25H280.234V400.168C280.203 399.617 280.055 399.191 279.789 398.891C279.523 398.586 279.164 398.434 278.711 398.434ZM282.32 400.777C282.32 399.789 282.549 399.004 283.006 398.422C283.463 397.836 284.068 397.543 284.822 397.543C285.596 397.543 286.199 397.816 286.633 398.363L286.686 397.66H287.676V403.848C287.676 404.668 287.432 405.314 286.943 405.787C286.459 406.26 285.807 406.496 284.986 406.496C284.529 406.496 284.082 406.398 283.645 406.203C283.207 406.008 282.873 405.74 282.643 405.4L283.205 404.75C283.67 405.324 284.238 405.611 284.91 405.611C285.438 405.611 285.848 405.463 286.141 405.166C286.438 404.869 286.586 404.451 286.586 403.912V403.367C286.152 403.867 285.561 404.117 284.811 404.117C284.068 404.117 283.467 403.818 283.006 403.221C282.549 402.623 282.32 401.809 282.32 400.777ZM283.41 400.9C283.41 401.615 283.557 402.178 283.85 402.588C284.143 402.994 284.553 403.197 285.08 403.197C285.764 403.197 286.266 402.887 286.586 402.266V399.371C286.254 398.766 285.756 398.463 285.092 398.463C284.564 398.463 284.152 398.668 283.855 399.078C283.559 399.488 283.41 400.096 283.41 400.9ZM290.494 404H289.41V397.66H290.494V404ZM289.322 395.979C289.322 395.803 289.375 395.654 289.48 395.533C289.59 395.412 289.75 395.352 289.961 395.352C290.172 395.352 290.332 395.412 290.441 395.533C290.551 395.654 290.605 395.803 290.605 395.979C290.605 396.154 290.551 396.301 290.441 396.418C290.332 396.535 290.172 396.594 289.961 396.594C289.75 396.594 289.59 396.535 289.48 396.418C289.375 396.301 289.322 396.154 289.322 395.979ZM295.926 402.318C295.926 402.025 295.814 401.799 295.592 401.639C295.373 401.475 294.988 401.334 294.438 401.217C293.891 401.1 293.455 400.959 293.131 400.795C292.811 400.631 292.572 400.436 292.416 400.209C292.264 399.982 292.188 399.713 292.188 399.4C292.188 398.881 292.406 398.441 292.844 398.082C293.285 397.723 293.848 397.543 294.531 397.543C295.25 397.543 295.832 397.729 296.277 398.1C296.727 398.471 296.951 398.945 296.951 399.523H295.861C295.861 399.227 295.734 398.971 295.48 398.756C295.23 398.541 294.914 398.434 294.531 398.434C294.137 398.434 293.828 398.52 293.605 398.691C293.383 398.863 293.271 399.088 293.271 399.365C293.271 399.627 293.375 399.824 293.582 399.957C293.789 400.09 294.162 400.217 294.701 400.338C295.244 400.459 295.684 400.604 296.02 400.771C296.355 400.939 296.604 401.143 296.764 401.381C296.928 401.615 297.01 401.902 297.01 402.242C297.01 402.809 296.783 403.264 296.33 403.607C295.877 403.947 295.289 404.117 294.566 404.117C294.059 404.117 293.609 404.027 293.219 403.848C292.828 403.668 292.521 403.418 292.299 403.098C292.08 402.773 291.971 402.424 291.971 402.049H293.055C293.074 402.412 293.219 402.701 293.488 402.916C293.762 403.127 294.121 403.232 294.566 403.232C294.977 403.232 295.305 403.15 295.551 402.986C295.801 402.818 295.926 402.596 295.926 402.318ZM299.893 396.125V397.66H301.076V398.498H299.893V402.43C299.893 402.684 299.945 402.875 300.051 403.004C300.156 403.129 300.336 403.191 300.59 403.191C300.715 403.191 300.887 403.168 301.105 403.121V404C300.82 404.078 300.543 404.117 300.273 404.117C299.789 404.117 299.424 403.971 299.178 403.678C298.932 403.385 298.809 402.969 298.809 402.43V398.498H297.654V397.66H298.809V396.125H299.893ZM304.979 404.117C304.119 404.117 303.42 403.836 302.881 403.273C302.342 402.707 302.072 401.951 302.072 401.006V400.807C302.072 400.178 302.191 399.617 302.43 399.125C302.672 398.629 303.008 398.242 303.438 397.965C303.871 397.684 304.34 397.543 304.844 397.543C305.668 397.543 306.309 397.814 306.766 398.357C307.223 398.9 307.451 399.678 307.451 400.689V401.141H303.156C303.172 401.766 303.354 402.271 303.701 402.658C304.053 403.041 304.498 403.232 305.037 403.232C305.42 403.232 305.744 403.154 306.01 402.998C306.275 402.842 306.508 402.635 306.707 402.377L307.369 402.893C306.838 403.709 306.041 404.117 304.979 404.117ZM304.844 398.434C304.406 398.434 304.039 398.594 303.742 398.914C303.445 399.23 303.262 399.676 303.191 400.25H306.367V400.168C306.336 399.617 306.188 399.191 305.922 398.891C305.656 398.586 305.297 398.434 304.844 398.434ZM311.775 398.633C311.611 398.605 311.434 398.592 311.242 398.592C310.531 398.592 310.049 398.895 309.795 399.5V404H308.711V397.66H309.766L309.783 398.393C310.139 397.826 310.643 397.543 311.295 397.543C311.506 397.543 311.666 397.57 311.775 397.625V398.633ZM317.377 395.469L320.166 402.43L322.955 395.469H324.414V404H323.289V400.678L323.395 397.092L320.594 404H319.732L316.938 397.109L317.049 400.678V404H315.924V395.469H317.377ZM328.861 404.117C328.002 404.117 327.303 403.836 326.764 403.273C326.225 402.707 325.955 401.951 325.955 401.006V400.807C325.955 400.178 326.074 399.617 326.312 399.125C326.555 398.629 326.891 398.242 327.32 397.965C327.754 397.684 328.223 397.543 328.727 397.543C329.551 397.543 330.191 397.814 330.648 398.357C331.105 398.9 331.334 399.678 331.334 400.689V401.141H327.039C327.055 401.766 327.236 402.271 327.584 402.658C327.936 403.041 328.381 403.232 328.92 403.232C329.303 403.232 329.627 403.154 329.893 402.998C330.158 402.842 330.391 402.635 330.59 402.377L331.252 402.893C330.721 403.709 329.924 404.117 328.861 404.117ZM328.727 398.434C328.289 398.434 327.922 398.594 327.625 398.914C327.328 399.23 327.145 399.676 327.074 400.25H330.25V400.168C330.219 399.617 330.07 399.191 329.805 398.891C329.539 398.586 329.18 398.434 328.727 398.434Z" fill="white"/>
<path d="M265.812 259.057H262.115V262.08H266.41V263H260.99V254.469H266.352V255.395H262.115V258.137H265.812V259.057ZM268.66 256.66L268.689 257.363C269.154 256.816 269.781 256.543 270.57 256.543C271.457 256.543 272.061 256.883 272.381 257.562C272.592 257.258 272.865 257.012 273.201 256.824C273.541 256.637 273.941 256.543 274.402 256.543C275.793 256.543 276.5 257.279 276.523 258.752V263H275.439V258.816C275.439 258.363 275.336 258.025 275.129 257.803C274.922 257.576 274.574 257.463 274.086 257.463C273.684 257.463 273.35 257.584 273.084 257.826C272.818 258.064 272.664 258.387 272.621 258.793V263H271.531V258.846C271.531 257.924 271.08 257.463 270.178 257.463C269.467 257.463 268.98 257.766 268.719 258.371V263H267.635V256.66H268.66ZM282.078 263C282.016 262.875 281.965 262.652 281.926 262.332C281.422 262.855 280.82 263.117 280.121 263.117C279.496 263.117 278.982 262.941 278.58 262.59C278.182 262.234 277.982 261.785 277.982 261.242C277.982 260.582 278.232 260.07 278.732 259.707C279.236 259.34 279.943 259.156 280.854 259.156H281.908V258.658C281.908 258.279 281.795 257.979 281.568 257.756C281.342 257.529 281.008 257.416 280.566 257.416C280.18 257.416 279.855 257.514 279.594 257.709C279.332 257.904 279.201 258.141 279.201 258.418H278.111C278.111 258.102 278.223 257.797 278.445 257.504C278.672 257.207 278.977 256.973 279.359 256.801C279.746 256.629 280.17 256.543 280.631 256.543C281.361 256.543 281.934 256.727 282.348 257.094C282.762 257.457 282.977 257.959 282.992 258.6V261.518C282.992 262.1 283.066 262.562 283.215 262.906V263H282.078ZM280.279 262.174C280.619 262.174 280.941 262.086 281.246 261.91C281.551 261.734 281.771 261.506 281.908 261.225V259.924H281.059C279.73 259.924 279.066 260.312 279.066 261.09C279.066 261.43 279.18 261.695 279.406 261.887C279.633 262.078 279.924 262.174 280.279 262.174ZM285.869 263H284.785V256.66H285.869V263ZM284.697 254.979C284.697 254.803 284.75 254.654 284.855 254.533C284.965 254.412 285.125 254.352 285.336 254.352C285.547 254.352 285.707 254.412 285.816 254.533C285.926 254.654 285.98 254.803 285.98 254.979C285.98 255.154 285.926 255.301 285.816 255.418C285.707 255.535 285.547 255.594 285.336 255.594C285.125 255.594 284.965 255.535 284.855 255.418C284.75 255.301 284.697 255.154 284.697 254.979ZM288.787 263H287.703V254H288.787V263ZM298.385 260.773H294.811L294.008 263H292.848L296.105 254.469H297.09L300.354 263H299.199L298.385 260.773ZM295.15 259.848H298.051L296.598 255.857L295.15 259.848ZM301.068 259.777C301.068 258.805 301.299 258.023 301.76 257.434C302.221 256.84 302.824 256.543 303.57 256.543C304.312 256.543 304.9 256.797 305.334 257.305V254H306.418V263H305.422L305.369 262.32C304.936 262.852 304.332 263.117 303.559 263.117C302.824 263.117 302.225 262.816 301.76 262.215C301.299 261.613 301.068 260.828 301.068 259.859V259.777ZM302.152 259.9C302.152 260.619 302.301 261.182 302.598 261.588C302.895 261.994 303.305 262.197 303.828 262.197C304.516 262.197 305.018 261.889 305.334 261.271V258.359C305.01 257.762 304.512 257.463 303.84 257.463C303.309 257.463 302.895 257.668 302.598 258.078C302.301 258.488 302.152 259.096 302.152 259.9ZM307.842 259.777C307.842 258.805 308.072 258.023 308.533 257.434C308.994 256.84 309.598 256.543 310.344 256.543C311.086 256.543 311.674 256.797 312.107 257.305V254H313.191V263H312.195L312.143 262.32C311.709 262.852 311.105 263.117 310.332 263.117C309.598 263.117 308.998 262.816 308.533 262.215C308.072 261.613 307.842 260.828 307.842 259.859V259.777ZM308.926 259.9C308.926 260.619 309.074 261.182 309.371 261.588C309.668 261.994 310.078 262.197 310.602 262.197C311.289 262.197 311.791 261.889 312.107 261.271V258.359C311.783 257.762 311.285 257.463 310.613 257.463C310.082 257.463 309.668 257.668 309.371 258.078C309.074 258.488 308.926 259.096 308.926 259.9ZM317.943 257.633C317.779 257.605 317.602 257.592 317.41 257.592C316.699 257.592 316.217 257.895 315.963 258.5V263H314.879V256.66H315.934L315.951 257.393C316.307 256.826 316.811 256.543 317.463 256.543C317.674 256.543 317.834 256.57 317.943 256.625V257.633ZM321.459 263.117C320.6 263.117 319.9 262.836 319.361 262.273C318.822 261.707 318.553 260.951 318.553 260.006V259.807C318.553 259.178 318.672 258.617 318.91 258.125C319.152 257.629 319.488 257.242 319.918 256.965C320.352 256.684 320.82 256.543 321.324 256.543C322.148 256.543 322.789 256.814 323.246 257.357C323.703 257.9 323.932 258.678 323.932 259.689V260.141H319.637C319.652 260.766 319.834 261.271 320.182 261.658C320.533 262.041 320.979 262.232 321.518 262.232C321.9 262.232 322.225 262.154 322.49 261.998C322.756 261.842 322.988 261.635 323.188 261.377L323.85 261.893C323.318 262.709 322.521 263.117 321.459 263.117ZM321.324 257.434C320.887 257.434 320.52 257.594 320.223 257.914C319.926 258.23 319.742 258.676 319.672 259.25H322.848V259.168C322.816 258.617 322.668 258.191 322.402 257.891C322.137 257.586 321.777 257.434 321.324 257.434ZM328.883 261.318C328.883 261.025 328.771 260.799 328.549 260.639C328.33 260.475 327.945 260.334 327.395 260.217C326.848 260.1 326.412 259.959 326.088 259.795C325.768 259.631 325.529 259.436 325.373 259.209C325.221 258.982 325.145 258.713 325.145 258.4C325.145 257.881 325.363 257.441 325.801 257.082C326.242 256.723 326.805 256.543 327.488 256.543C328.207 256.543 328.789 256.729 329.234 257.1C329.684 257.471 329.908 257.945 329.908 258.523H328.818C328.818 258.227 328.691 257.971 328.438 257.756C328.188 257.541 327.871 257.434 327.488 257.434C327.094 257.434 326.785 257.52 326.562 257.691C326.34 257.863 326.229 258.088 326.229 258.365C326.229 258.627 326.332 258.824 326.539 258.957C326.746 259.09 327.119 259.217 327.658 259.338C328.201 259.459 328.641 259.604 328.977 259.771C329.312 259.939 329.561 260.143 329.721 260.381C329.885 260.615 329.967 260.902 329.967 261.242C329.967 261.809 329.74 262.264 329.287 262.607C328.834 262.947 328.246 263.117 327.523 263.117C327.016 263.117 326.566 263.027 326.176 262.848C325.785 262.668 325.479 262.418 325.256 262.098C325.037 261.773 324.928 261.424 324.928 261.049H326.012C326.031 261.412 326.176 261.701 326.445 261.916C326.719 262.127 327.078 262.232 327.523 262.232C327.934 262.232 328.262 262.15 328.508 261.986C328.758 261.818 328.883 261.596 328.883 261.318ZM335.07 261.318C335.07 261.025 334.959 260.799 334.736 260.639C334.518 260.475 334.133 260.334 333.582 260.217C333.035 260.1 332.6 259.959 332.275 259.795C331.955 259.631 331.717 259.436 331.561 259.209C331.408 258.982 331.332 258.713 331.332 258.4C331.332 257.881 331.551 257.441 331.988 257.082C332.43 256.723 332.992 256.543 333.676 256.543C334.395 256.543 334.977 256.729 335.422 257.1C335.871 257.471 336.096 257.945 336.096 258.523H335.006C335.006 258.227 334.879 257.971 334.625 257.756C334.375 257.541 334.059 257.434 333.676 257.434C333.281 257.434 332.973 257.52 332.75 257.691C332.527 257.863 332.416 258.088 332.416 258.365C332.416 258.627 332.52 258.824 332.727 258.957C332.934 259.09 333.307 259.217 333.846 259.338C334.389 259.459 334.828 259.604 335.164 259.771C335.5 259.939 335.748 260.143 335.908 260.381C336.072 260.615 336.154 260.902 336.154 261.242C336.154 261.809 335.928 262.264 335.475 262.607C335.021 262.947 334.434 263.117 333.711 263.117C333.203 263.117 332.754 263.027 332.363 262.848C331.973 262.668 331.666 262.418 331.443 262.098C331.225 261.773 331.115 261.424 331.115 261.049H332.199C332.219 261.412 332.363 261.701 332.633 261.916C332.906 262.127 333.266 262.232 333.711 262.232C334.121 262.232 334.449 262.15 334.695 261.986C334.945 261.818 335.07 261.596 335.07 261.318Z" fill="#9A9A9A"/>
<path d="M272.115 306.66V310H270.99V301.469H274.137C275.07 301.469 275.801 301.707 276.328 302.184C276.859 302.66 277.125 303.291 277.125 304.076C277.125 304.904 276.865 305.543 276.346 305.992C275.83 306.438 275.09 306.66 274.125 306.66H272.115ZM272.115 305.74H274.137C274.738 305.74 275.199 305.6 275.52 305.318C275.84 305.033 276 304.623 276 304.088C276 303.58 275.84 303.174 275.52 302.869C275.199 302.564 274.76 302.406 274.201 302.395H272.115V305.74ZM282.234 310C282.172 309.875 282.121 309.652 282.082 309.332C281.578 309.855 280.977 310.117 280.277 310.117C279.652 310.117 279.139 309.941 278.736 309.59C278.338 309.234 278.139 308.785 278.139 308.242C278.139 307.582 278.389 307.07 278.889 306.707C279.393 306.34 280.1 306.156 281.01 306.156H282.064V305.658C282.064 305.279 281.951 304.979 281.725 304.756C281.498 304.529 281.164 304.416 280.723 304.416C280.336 304.416 280.012 304.514 279.75 304.709C279.488 304.904 279.357 305.141 279.357 305.418H278.268C278.268 305.102 278.379 304.797 278.602 304.504C278.828 304.207 279.133 303.973 279.516 303.801C279.902 303.629 280.326 303.543 280.787 303.543C281.518 303.543 282.09 303.727 282.504 304.094C282.918 304.457 283.133 304.959 283.148 305.6V308.518C283.148 309.1 283.223 309.562 283.371 309.906V310H282.234ZM280.436 309.174C280.775 309.174 281.098 309.086 281.402 308.91C281.707 308.734 281.928 308.506 282.064 308.225V306.924H281.215C279.887 306.924 279.223 307.312 279.223 308.09C279.223 308.43 279.336 308.695 279.562 308.887C279.789 309.078 280.08 309.174 280.436 309.174ZM288.539 308.318C288.539 308.025 288.428 307.799 288.205 307.639C287.986 307.475 287.602 307.334 287.051 307.217C286.504 307.1 286.068 306.959 285.744 306.795C285.424 306.631 285.186 306.436 285.029 306.209C284.877 305.982 284.801 305.713 284.801 305.4C284.801 304.881 285.02 304.441 285.457 304.082C285.898 303.723 286.461 303.543 287.145 303.543C287.863 303.543 288.445 303.729 288.891 304.1C289.34 304.471 289.564 304.945 289.564 305.523H288.475C288.475 305.227 288.348 304.971 288.094 304.756C287.844 304.541 287.527 304.434 287.145 304.434C286.75 304.434 286.441 304.52 286.219 304.691C285.996 304.863 285.885 305.088 285.885 305.365C285.885 305.627 285.988 305.824 286.195 305.957C286.402 306.09 286.775 306.217 287.314 306.338C287.857 306.459 288.297 306.604 288.633 306.771C288.969 306.939 289.217 307.143 289.377 307.381C289.541 307.615 289.623 307.902 289.623 308.242C289.623 308.809 289.396 309.264 288.943 309.607C288.49 309.947 287.902 310.117 287.18 310.117C286.672 310.117 286.223 310.027 285.832 309.848C285.441 309.668 285.135 309.418 284.912 309.098C284.693 308.773 284.584 308.424 284.584 308.049H285.668C285.688 308.412 285.832 308.701 286.102 308.916C286.375 309.127 286.734 309.232 287.18 309.232C287.59 309.232 287.918 309.15 288.164 308.986C288.414 308.818 288.539 308.596 288.539 308.318ZM294.727 308.318C294.727 308.025 294.615 307.799 294.393 307.639C294.174 307.475 293.789 307.334 293.238 307.217C292.691 307.1 292.256 306.959 291.932 306.795C291.611 306.631 291.373 306.436 291.217 306.209C291.064 305.982 290.988 305.713 290.988 305.4C290.988 304.881 291.207 304.441 291.645 304.082C292.086 303.723 292.648 303.543 293.332 303.543C294.051 303.543 294.633 303.729 295.078 304.1C295.527 304.471 295.752 304.945 295.752 305.523H294.662C294.662 305.227 294.535 304.971 294.281 304.756C294.031 304.541 293.715 304.434 293.332 304.434C292.938 304.434 292.629 304.52 292.406 304.691C292.184 304.863 292.072 305.088 292.072 305.365C292.072 305.627 292.176 305.824 292.383 305.957C292.59 306.09 292.963 306.217 293.502 306.338C294.045 306.459 294.484 306.604 294.82 306.771C295.156 306.939 295.404 307.143 295.564 307.381C295.729 307.615 295.811 307.902 295.811 308.242C295.811 308.809 295.584 309.264 295.131 309.607C294.678 309.947 294.09 310.117 293.367 310.117C292.859 310.117 292.41 310.027 292.02 309.848C291.629 309.668 291.322 309.418 291.1 309.098C290.881 308.773 290.771 308.424 290.771 308.049H291.855C291.875 308.412 292.02 308.701 292.289 308.916C292.562 309.127 292.922 309.232 293.367 309.232C293.777 309.232 294.105 309.15 294.352 308.986C294.602 308.818 294.727 308.596 294.727 308.318ZM302.836 308.506L304.055 303.66H305.139L303.293 310H302.414L300.873 305.195L299.373 310H298.494L296.654 303.66H297.732L298.98 308.406L300.457 303.66H301.33L302.836 308.506ZM305.959 306.771C305.959 306.15 306.08 305.592 306.322 305.096C306.568 304.6 306.908 304.217 307.342 303.947C307.779 303.678 308.277 303.543 308.836 303.543C309.699 303.543 310.396 303.842 310.928 304.439C311.463 305.037 311.73 305.832 311.73 306.824V306.9C311.73 307.518 311.611 308.072 311.373 308.564C311.139 309.053 310.801 309.434 310.359 309.707C309.922 309.98 309.418 310.117 308.848 310.117C307.988 310.117 307.291 309.818 306.756 309.221C306.225 308.623 305.959 307.832 305.959 306.848V306.771ZM307.049 306.9C307.049 307.604 307.211 308.168 307.535 308.594C307.863 309.02 308.301 309.232 308.848 309.232C309.398 309.232 309.836 309.018 310.16 308.588C310.484 308.154 310.646 307.549 310.646 306.771C310.646 306.076 310.48 305.514 310.148 305.084C309.82 304.65 309.383 304.434 308.836 304.434C308.301 304.434 307.869 304.646 307.541 305.072C307.213 305.498 307.049 306.107 307.049 306.9ZM316.154 304.633C315.99 304.605 315.812 304.592 315.621 304.592C314.91 304.592 314.428 304.895 314.174 305.5V310H313.09V303.66H314.145L314.162 304.393C314.518 303.826 315.021 303.543 315.674 303.543C315.885 303.543 316.045 303.57 316.154 303.625V304.633ZM316.775 306.777C316.775 305.805 317.006 305.023 317.467 304.434C317.928 303.84 318.531 303.543 319.277 303.543C320.02 303.543 320.607 303.797 321.041 304.305V301H322.125V310H321.129L321.076 309.32C320.643 309.852 320.039 310.117 319.266 310.117C318.531 310.117 317.932 309.816 317.467 309.215C317.006 308.613 316.775 307.828 316.775 306.859V306.777ZM317.859 306.9C317.859 307.619 318.008 308.182 318.305 308.588C318.602 308.994 319.012 309.197 319.535 309.197C320.223 309.197 320.725 308.889 321.041 308.271V305.359C320.717 304.762 320.219 304.463 319.547 304.463C319.016 304.463 318.602 304.668 318.305 305.078C318.008 305.488 317.859 306.096 317.859 306.9Z" fill="#9A9A9A"/>
<path d="M243.266 355.293C243.16 356.195 242.826 356.893 242.264 357.385C241.705 357.873 240.961 358.117 240.031 358.117C239.023 358.117 238.215 357.756 237.605 357.033C237 356.311 236.697 355.344 236.697 354.133V353.312C236.697 352.52 236.838 351.822 237.119 351.221C237.404 350.619 237.807 350.158 238.326 349.838C238.846 349.514 239.447 349.352 240.131 349.352C241.037 349.352 241.764 349.605 242.311 350.113C242.857 350.617 243.176 351.316 243.266 352.211H242.135C242.037 351.531 241.824 351.039 241.496 350.734C241.172 350.43 240.717 350.277 240.131 350.277C239.412 350.277 238.848 350.543 238.438 351.074C238.031 351.605 237.828 352.361 237.828 353.342V354.168C237.828 355.094 238.021 355.83 238.408 356.377C238.795 356.924 239.336 357.197 240.031 357.197C240.656 357.197 241.135 357.057 241.467 356.775C241.803 356.49 242.025 355.996 242.135 355.293H243.266ZM244.35 354.771C244.35 354.15 244.471 353.592 244.713 353.096C244.959 352.6 245.299 352.217 245.732 351.947C246.17 351.678 246.668 351.543 247.227 351.543C248.09 351.543 248.787 351.842 249.318 352.439C249.854 353.037 250.121 353.832 250.121 354.824V354.9C250.121 355.518 250.002 356.072 249.764 356.564C249.529 357.053 249.191 357.434 248.75 357.707C248.312 357.98 247.809 358.117 247.238 358.117C246.379 358.117 245.682 357.818 245.146 357.221C244.615 356.623 244.35 355.832 244.35 354.848V354.771ZM245.439 354.9C245.439 355.604 245.602 356.168 245.926 356.594C246.254 357.02 246.691 357.232 247.238 357.232C247.789 357.232 248.227 357.018 248.551 356.588C248.875 356.154 249.037 355.549 249.037 354.771C249.037 354.076 248.871 353.514 248.539 353.084C248.211 352.65 247.773 352.434 247.227 352.434C246.691 352.434 246.26 352.646 245.932 353.072C245.604 353.498 245.439 354.107 245.439 354.9ZM252.506 351.66L252.541 352.457C253.025 351.848 253.658 351.543 254.439 351.543C255.779 351.543 256.455 352.299 256.467 353.811V358H255.383V353.805C255.379 353.348 255.273 353.01 255.066 352.791C254.863 352.572 254.545 352.463 254.111 352.463C253.76 352.463 253.451 352.557 253.186 352.744C252.92 352.932 252.713 353.178 252.564 353.482V358H251.48V351.66H252.506ZM258.465 358V352.498H257.463V351.66H258.465V351.121C258.465 350.414 258.666 349.863 259.068 349.469C259.475 349.074 260.047 348.877 260.785 348.877C261.223 348.877 261.775 348.996 262.443 349.234L262.262 350.148C261.773 349.953 261.309 349.855 260.867 349.855C260.402 349.855 260.066 349.961 259.859 350.172C259.656 350.379 259.555 350.691 259.555 351.109V351.66H260.85V352.498H259.555V358H258.465ZM262.982 358H261.893V351.66H262.982V358ZM267.811 352.633C267.646 352.605 267.469 352.592 267.277 352.592C266.566 352.592 266.084 352.895 265.83 353.5V358H264.746V351.66H265.801L265.818 352.393C266.174 351.826 266.678 351.543 267.33 351.543C267.541 351.543 267.701 351.57 267.811 351.625V352.633ZM269.832 351.66L269.861 352.363C270.326 351.816 270.953 351.543 271.742 351.543C272.629 351.543 273.232 351.883 273.553 352.562C273.764 352.258 274.037 352.012 274.373 351.824C274.713 351.637 275.113 351.543 275.574 351.543C276.965 351.543 277.672 352.279 277.695 353.752V358H276.611V353.816C276.611 353.363 276.508 353.025 276.301 352.803C276.094 352.576 275.746 352.463 275.258 352.463C274.855 352.463 274.521 352.584 274.256 352.826C273.99 353.064 273.836 353.387 273.793 353.793V358H272.703V353.846C272.703 352.924 272.252 352.463 271.35 352.463C270.639 352.463 270.152 352.766 269.891 353.371V358H268.807V351.66H269.832ZM283.607 354.66V358H282.482V349.469H285.629C286.562 349.469 287.293 349.707 287.82 350.184C288.352 350.66 288.617 351.291 288.617 352.076C288.617 352.904 288.357 353.543 287.838 353.992C287.322 354.438 286.582 354.66 285.617 354.66H283.607ZM283.607 353.74H285.629C286.23 353.74 286.691 353.6 287.012 353.318C287.332 353.033 287.492 352.623 287.492 352.088C287.492 351.58 287.332 351.174 287.012 350.869C286.691 350.564 286.252 350.406 285.693 350.395H283.607V353.74ZM293.727 358C293.664 357.875 293.613 357.652 293.574 357.332C293.07 357.855 292.469 358.117 291.77 358.117C291.145 358.117 290.631 357.941 290.229 357.59C289.83 357.234 289.631 356.785 289.631 356.242C289.631 355.582 289.881 355.07 290.381 354.707C290.885 354.34 291.592 354.156 292.502 354.156H293.557V353.658C293.557 353.279 293.443 352.979 293.217 352.756C292.99 352.529 292.656 352.416 292.215 352.416C291.828 352.416 291.504 352.514 291.242 352.709C290.98 352.904 290.85 353.141 290.85 353.418H289.76C289.76 353.102 289.871 352.797 290.094 352.504C290.32 352.207 290.625 351.973 291.008 351.801C291.395 351.629 291.818 351.543 292.279 351.543C293.01 351.543 293.582 351.727 293.996 352.094C294.41 352.457 294.625 352.959 294.641 353.6V356.518C294.641 357.1 294.715 357.562 294.863 357.906V358H293.727ZM291.928 357.174C292.268 357.174 292.59 357.086 292.895 356.91C293.199 356.734 293.42 356.506 293.557 356.225V354.924H292.707C291.379 354.924 290.715 355.312 290.715 356.09C290.715 356.43 290.828 356.695 291.055 356.887C291.281 357.078 291.572 357.174 291.928 357.174ZM300.031 356.318C300.031 356.025 299.92 355.799 299.697 355.639C299.479 355.475 299.094 355.334 298.543 355.217C297.996 355.1 297.561 354.959 297.236 354.795C296.916 354.631 296.678 354.436 296.521 354.209C296.369 353.982 296.293 353.713 296.293 353.4C296.293 352.881 296.512 352.441 296.949 352.082C297.391 351.723 297.953 351.543 298.637 351.543C299.355 351.543 299.938 351.729 300.383 352.1C300.832 352.471 301.057 352.945 301.057 353.523H299.967C299.967 353.227 299.84 352.971 299.586 352.756C299.336 352.541 299.02 352.434 298.637 352.434C298.242 352.434 297.934 352.52 297.711 352.691C297.488 352.863 297.377 353.088 297.377 353.365C297.377 353.627 297.48 353.824 297.688 353.957C297.895 354.09 298.268 354.217 298.807 354.338C299.35 354.459 299.789 354.604 300.125 354.771C300.461 354.939 300.709 355.143 300.869 355.381C301.033 355.615 301.115 355.902 301.115 356.242C301.115 356.809 300.889 357.264 300.436 357.607C299.982 357.947 299.395 358.117 298.672 358.117C298.164 358.117 297.715 358.027 297.324 357.848C296.934 357.668 296.627 357.418 296.404 357.098C296.186 356.773 296.076 356.424 296.076 356.049H297.16C297.18 356.412 297.324 356.701 297.594 356.916C297.867 357.127 298.227 357.232 298.672 357.232C299.082 357.232 299.41 357.15 299.656 356.986C299.906 356.818 300.031 356.596 300.031 356.318ZM306.219 356.318C306.219 356.025 306.107 355.799 305.885 355.639C305.666 355.475 305.281 355.334 304.73 355.217C304.184 355.1 303.748 354.959 303.424 354.795C303.104 354.631 302.865 354.436 302.709 354.209C302.557 353.982 302.48 353.713 302.48 353.4C302.48 352.881 302.699 352.441 303.137 352.082C303.578 351.723 304.141 351.543 304.824 351.543C305.543 351.543 306.125 351.729 306.57 352.1C307.02 352.471 307.244 352.945 307.244 353.523H306.154C306.154 353.227 306.027 352.971 305.773 352.756C305.523 352.541 305.207 352.434 304.824 352.434C304.43 352.434 304.121 352.52 303.898 352.691C303.676 352.863 303.564 353.088 303.564 353.365C303.564 353.627 303.668 353.824 303.875 353.957C304.082 354.09 304.455 354.217 304.994 354.338C305.537 354.459 305.977 354.604 306.312 354.771C306.648 354.939 306.896 355.143 307.057 355.381C307.221 355.615 307.303 355.902 307.303 356.242C307.303 356.809 307.076 357.264 306.623 357.607C306.17 357.947 305.582 358.117 304.859 358.117C304.352 358.117 303.902 358.027 303.512 357.848C303.121 357.668 302.814 357.418 302.592 357.098C302.373 356.773 302.264 356.424 302.264 356.049H303.348C303.367 356.412 303.512 356.701 303.781 356.916C304.055 357.127 304.414 357.232 304.859 357.232C305.27 357.232 305.598 357.15 305.844 356.986C306.094 356.818 306.219 356.596 306.219 356.318ZM314.328 356.506L315.547 351.66H316.631L314.785 358H313.906L312.365 353.195L310.865 358H309.986L308.146 351.66H309.225L310.473 356.406L311.949 351.66H312.822L314.328 356.506ZM317.451 354.771C317.451 354.15 317.572 353.592 317.814 353.096C318.061 352.6 318.4 352.217 318.834 351.947C319.271 351.678 319.77 351.543 320.328 351.543C321.191 351.543 321.889 351.842 322.42 352.439C322.955 353.037 323.223 353.832 323.223 354.824V354.9C323.223 355.518 323.104 356.072 322.865 356.564C322.631 357.053 322.293 357.434 321.852 357.707C321.414 357.98 320.91 358.117 320.34 358.117C319.48 358.117 318.783 357.818 318.248 357.221C317.717 356.623 317.451 355.832 317.451 354.848V354.771ZM318.541 354.9C318.541 355.604 318.703 356.168 319.027 356.594C319.355 357.02 319.793 357.232 320.34 357.232C320.891 357.232 321.328 357.018 321.652 356.588C321.977 356.154 322.139 355.549 322.139 354.771C322.139 354.076 321.973 353.514 321.641 353.084C321.312 352.65 320.875 352.434 320.328 352.434C319.793 352.434 319.361 352.646 319.033 353.072C318.705 353.498 318.541 354.107 318.541 354.9ZM327.646 352.633C327.482 352.605 327.305 352.592 327.113 352.592C326.402 352.592 325.92 352.895 325.666 353.5V358H324.582V351.66H325.637L325.654 352.393C326.01 351.826 326.514 351.543 327.166 351.543C327.377 351.543 327.537 351.57 327.646 351.625V352.633ZM328.268 354.777C328.268 353.805 328.498 353.023 328.959 352.434C329.42 351.84 330.023 351.543 330.77 351.543C331.512 351.543 332.1 351.797 332.533 352.305V349H333.617V358H332.621L332.568 357.32C332.135 357.852 331.531 358.117 330.758 358.117C330.023 358.117 329.424 357.816 328.959 357.215C328.498 356.613 328.268 355.828 328.268 354.859V354.777ZM329.352 354.9C329.352 355.619 329.5 356.182 329.797 356.588C330.094 356.994 330.504 357.197 331.027 357.197C331.715 357.197 332.217 356.889 332.533 356.271V353.359C332.209 352.762 331.711 352.463 331.039 352.463C330.508 352.463 330.094 352.668 329.797 353.078C329.5 353.488 329.352 354.096 329.352 354.9Z" fill="#9A9A9A"/>
<path d="M121.77 393.235C120.874 392.084 120.241 390.75 119.917 389.328C119.592 387.905 119.583 386.429 119.89 385.003C120.198 383.577 120.814 382.235 121.696 381.073C122.578 379.911 123.704 378.957 124.995 378.277L122.911 355.568L136.403 350.935L138.895 383.046C139.894 385.291 140.034 387.823 139.29 390.164C138.546 392.505 136.969 394.491 134.858 395.747C132.747 397.003 130.249 397.441 127.837 396.978C125.424 396.515 123.266 395.183 121.77 393.235V393.235Z" fill="#FFB8B8"/>
<path d="M136.253 262.898C136.253 262.898 145.512 243.468 153.738 250.303C161.965 257.138 142.46 314.588 142.46 314.588L139.493 370.358L123.858 368.796L119.437 314.46L136.253 262.898Z" fill="#CCCCCC"/>
<path d="M12.0678 550.353L23.6738 559.748L65.4348 519.452L48.3058 505.586L12.0678 550.353Z" fill="#FFB8B8"/>
<path d="M12.1744 544.167L35.0316 562.669L35.0325 562.67C38.8953 565.798 41.3577 570.331 41.878 575.274C42.3983 580.217 40.9338 585.164 37.8068 589.028L37.4236 589.501L0 559.207L12.1744 544.167Z" fill="#2F2E41"/>
<path d="M173.369 576.433H188.301L195.405 518.836L173.366 518.837L173.369 576.433Z" fill="#FFB8B8"/>
<path d="M169.56 571.558L198.967 571.557H198.968C203.938 571.557 208.705 573.531 212.219 577.046C215.734 580.56 217.708 585.327 217.709 590.297V590.906L169.56 590.908L169.56 571.558Z" fill="#2F2E41"/>
<path d="M199.571 306.416C199.571 306.416 227.584 340.52 221.494 374.623C215.404 408.727 210.533 434.305 210.533 434.305L200.789 511.039C200.789 511.039 204.443 531.936 199.571 537.321C199.571 537.321 206.879 550.014 193.481 554.886C180.083 559.758 172.854 553.203 172.854 553.203C172.854 553.203 163.031 539.052 169.121 535.398L171.686 384.811L74.1173 512.257C74.1173 512.257 72.3239 527.759 59.8227 527.925L44.8855 539.052L27.8336 529.308L36.3595 518.346C36.3595 518.346 31.4875 506.167 42.4495 503.731L105.785 420.907L121.619 378.277C121.619 378.277 130.145 345.392 153.287 331.994V317.737L199.571 306.416Z" fill="#2F2E41"/>
<path d="M151.46 247.343C155.148 242.985 160.31 240.135 165.963 239.337C171.616 238.539 177.365 239.848 182.116 243.015L183.128 243.689C193.939 255.932 201.205 270.893 204.144 286.96L208.706 311.897L151.46 324.297L138.04 278.013C136.336 272.139 136.746 265.853 139.198 260.249C141.65 254.645 145.989 250.079 151.46 247.343V247.343Z" fill="#CCCCCC"/>
<path d="M245.511 398.537C243.924 398.018 242.47 397.158 241.251 396.016C240.033 394.875 239.079 393.48 238.458 391.93C237.837 390.38 237.563 388.713 237.656 387.046C237.749 385.379 238.206 383.752 238.996 382.281L222.482 362.071L232.316 349.04L255.236 377.908C257.62 379.399 259.374 381.711 260.167 384.408C260.959 387.105 260.735 389.999 259.536 392.542C258.337 395.085 256.247 397.1 253.663 398.204C251.078 399.309 248.177 399.428 245.511 398.537H245.511Z" fill="#FFB8B8"/>
<path d="M175.82 265.613C175.82 265.613 172.166 241.253 184.346 242.471C196.526 243.689 214.796 310.679 214.796 310.679L247.681 365.489L231.847 374.015L192.872 325.295L175.82 265.613Z" fill="#CCCCCC"/>
<path d="M198.124 230H140.124C138.931 229.999 137.787 229.524 136.943 228.68C136.1 227.837 135.625 226.693 135.624 225.5V200.5C135.624 191.615 139.153 183.094 145.436 176.812C151.718 170.529 160.239 167 169.124 167C178.009 167 186.53 170.529 192.812 176.812C199.095 183.094 202.624 191.615 202.624 200.5V225.5C202.623 226.693 202.148 227.837 201.304 228.68C200.461 229.524 199.317 229.999 198.124 230Z" fill="#2F2E41"/>
<path d="M176.008 229.418C189.573 229.418 200.569 218.422 200.569 204.857C200.569 191.292 189.573 180.296 176.008 180.296C162.443 180.296 151.447 191.292 151.447 204.857C151.447 218.422 162.443 229.418 176.008 229.418Z" fill="#FFB8B8"/>
<path d="M210.549 203H179.64L179.323 197.908L177.738 203H172.978L172.35 192.908L169.209 203H160V202.5C160 187.888 170.361 176 183.096 176H187.454C200.189 176 210.549 187.888 210.549 202.5V203Z" fill="#2F2E41"/>
<path d="M180.919 234.667C180.541 234.666 180.164 234.637 179.791 234.58L143 228.913V190.593C143 186.679 144.555 182.924 147.323 180.156C150.091 177.388 153.845 175.833 157.76 175.833H183.499L182.497 176.854C168.546 191.057 179.056 214.087 186.563 226.551C187.114 227.447 187.363 228.496 187.273 229.544C187.183 230.592 186.759 231.583 186.064 232.372C185.425 233.106 184.633 233.692 183.745 234.088C182.856 234.484 181.892 234.682 180.919 234.667Z" fill="#2F2E41"/>
<defs>
<filter id="filter0_d" x="179" y="38" width="317" height="535" filterUnits="userSpaceOnUse" color-interpolation-filters="sRGB">
<feFlood flood-opacity="0" result="BackgroundImageFix"/>
<feColorMatrix in="SourceAlpha" type="matrix" values="0 0 0 0 0 0 0 0 0 0 0 0 0 0 0 0 0 0 127 0"/>
<feOffset dx="10" dy="10"/>
<feColorMatrix type="matrix" values="0 0 0 0 0 0 0 0 0 0 0 0 0 0 0 0 0 0 1 0"/>
<feBlend mode="normal" in2="BackgroundImageFix" result="effect1_dropShadow"/>
<feBlend mode="normal" in="SourceGraphic" in2="effect1_dropShadow" result="shape"/>
</filter>
<linearGradient id="paint0_linear" x1="228.48" y1="81.2726" x2="217.368" y2="79.0715" gradientUnits="userSpaceOnUse">
<stop stop-color="#00EAFF"/>
<stop offset="0.216667" stop-color="#3C8CE7"/>
</linearGradient>
<linearGradient id="paint1_linear" x1="200" y1="58" x2="224.065" y2="86.577" gradientUnits="userSpaceOnUse">
<stop stop-color="#00CDDF"/>
<stop offset="1" stop-color="#006EEB"/>
</linearGradient>
</defs>
</svg>
