<svg width="446" height="105" viewBox="0 0 446 105" fill="none" xmlns="http://www.w3.org/2000/svg">
<path d="M127.094 80.7344V68.7344C129.531 70.2031 131.953 71.2969 134.359 72.0156C136.797 72.7344 139.094 73.0938 141.25 73.0938C143.875 73.0938 145.938 72.7344 147.438 72.0156C148.969 71.2969 149.734 70.2031 149.734 68.7344C149.734 67.7969 149.391 67.0156 148.703 66.3906C148.016 65.7656 147.125 65.2188 146.031 64.75C144.969 64.2812 143.797 63.8594 142.516 63.4844C141.234 63.1094 140 62.6875 138.812 62.2188C136.906 61.5 135.219 60.7344 133.75 59.9219C132.312 59.0781 131.094 58.1094 130.094 57.0156C129.125 55.9219 128.375 54.6562 127.844 53.2188C127.344 51.7812 127.094 50.0781 127.094 48.1094C127.094 45.4219 127.672 43.1094 128.828 41.1719C130.016 39.2344 131.578 37.6562 133.516 36.4375C135.484 35.1875 137.719 34.2812 140.219 33.7188C142.75 33.125 145.375 32.8281 148.094 32.8281C150.219 32.8281 152.375 33 154.562 33.3438C156.75 33.6562 158.906 34.125 161.031 34.75V46.1875C159.156 45.0938 157.141 44.2812 154.984 43.75C152.859 43.1875 150.766 42.9062 148.703 42.9062C147.734 42.9062 146.812 43 145.938 43.1875C145.094 43.3438 144.344 43.5938 143.688 43.9375C143.031 44.25 142.516 44.6719 142.141 45.2031C141.766 45.7031 141.578 46.2812 141.578 46.9375C141.578 47.8125 141.859 48.5625 142.422 49.1875C142.984 49.8125 143.719 50.3594 144.625 50.8281C145.531 51.2656 146.531 51.6719 147.625 52.0469C148.75 52.3906 149.859 52.75 150.953 53.125C152.922 53.8125 154.703 54.5625 156.297 55.375C157.891 56.1875 159.25 57.1406 160.375 58.2344C161.531 59.3281 162.406 60.6094 163 62.0781C163.625 63.5469 163.938 65.2969 163.938 67.3281C163.938 70.1719 163.312 72.6094 162.062 74.6406C160.844 76.6406 159.203 78.2812 157.141 79.5625C155.109 80.8125 152.75 81.7188 150.062 82.2812C147.406 82.875 144.641 83.1719 141.766 83.1719C136.484 83.1719 131.594 82.3594 127.094 80.7344Z" fill="black"/>
<path d="M217.729 82H199.964L184.636 58.1875H184.448V82H169.636V10.9375H184.448V56.1719H184.636L198.932 34H216.511L199.307 56.5469L217.729 82Z" fill="black"/>
<path d="M266.177 34L246.677 85.8438C241.99 98.3125 234.927 104.547 225.49 104.547C221.896 104.547 218.943 104.141 216.631 103.328V91.5156C218.599 92.6719 220.74 93.25 223.052 93.25C226.865 93.25 229.521 91.4531 231.021 87.8594L233.552 81.9062L214.052 34H230.459L239.412 63.2031C239.974 65.0156 240.412 67.1562 240.724 69.625H240.912C241.193 67.8125 241.709 65.7031 242.459 63.2969L251.506 34H266.177Z" fill="black"/>
<path d="M284.251 76.4219H284.063V82H269.251V10.9375H284.063V41.2188H284.251C287.907 35.625 293.11 32.8281 299.86 32.8281C306.048 32.8281 310.813 34.9531 314.157 39.2031C317.501 43.4531 319.173 49.2656 319.173 56.6406C319.173 64.6406 317.219 71.0625 313.313 75.9062C309.407 80.75 304.188 83.1719 297.657 83.1719C291.751 83.1719 287.282 80.9219 284.251 76.4219ZM283.829 56.1719V61.0938C283.829 64.1875 284.719 66.75 286.501 68.7812C288.282 70.8125 290.563 71.8281 293.344 71.8281C296.719 71.8281 299.329 70.5312 301.173 67.9375C303.048 65.3125 303.985 61.6094 303.985 56.8281C303.985 52.8594 303.126 49.7656 301.407 47.5469C299.719 45.2969 297.298 44.1719 294.141 44.1719C291.173 44.1719 288.704 45.2812 286.735 47.5C284.798 49.7188 283.829 52.6094 283.829 56.1719Z" fill="black"/>
<path d="M348.777 83.1719C340.777 83.1719 334.48 80.9375 329.886 76.4688C325.324 71.9688 323.042 65.875 323.042 58.1875C323.042 50.25 325.417 44.0469 330.167 39.5781C334.917 35.0781 341.339 32.8281 349.433 32.8281C357.402 32.8281 363.652 35.0781 368.183 39.5781C372.714 44.0469 374.98 49.9688 374.98 57.3438C374.98 65.3125 372.636 71.6094 367.949 76.2344C363.292 80.8594 356.902 83.1719 348.777 83.1719ZM349.152 44.1719C345.652 44.1719 342.933 45.375 340.996 47.7812C339.058 50.1875 338.089 53.5938 338.089 58C338.089 67.2188 341.808 71.8281 349.246 71.8281C356.339 71.8281 359.886 67.0938 359.886 57.625C359.886 48.6562 356.308 44.1719 349.152 44.1719Z" fill="black"/>
<path d="M426.1 34L410.256 57.25L426.006 82H408.944L402.006 69.0625C401.444 68.0312 400.772 66.5781 399.991 64.7031H399.803C399.334 66.0156 398.694 67.4219 397.881 68.9219L390.897 82H373.881L390.1 58.0938L374.866 34H392.022L398.866 47.4531C399.772 49.2344 400.413 50.7344 400.788 51.9531H400.975C401.475 50.4844 402.147 48.9531 402.991 47.3594L409.975 34H426.1Z" fill="black"/>
<path d="M436.533 83.1719C434.095 83.1719 432.064 82.4219 430.439 80.9219C428.814 79.4219 428.001 77.5781 428.001 75.3906C428.001 73.1406 428.829 71.2969 430.486 69.8594C432.173 68.4219 434.267 67.7031 436.767 67.7031C439.298 67.7031 441.361 68.4375 442.954 69.9062C444.579 71.3438 445.392 73.1719 445.392 75.3906C445.392 77.6719 444.564 79.5469 442.908 81.0156C441.283 82.4531 439.158 83.1719 436.533 83.1719Z" fill="black"/>
<path d="M98.3456 93.8985C98.5523 96.9215 95.4534 99.0678 92.6961 97.8111L80.5812 92.2898C77.7568 91.0026 77.4109 87.1288 79.9626 85.3616L91.1694 77.6002C93.7211 75.8329 97.2257 77.519 97.4375 80.6157L98.3456 93.8985Z" fill="url(#paint0_linear)"/>
<path d="M114 48C114 74.5097 88.4802 96 57 96C25.5198 96 0 74.5097 0 48C0 21.4903 25.5198 0 57 0C88.4802 0 114 21.4903 114 48Z" fill="url(#paint1_linear)"/>
<path d="M40 50C40 54.9706 35.9706 59 31 59C26.0294 59 22 54.9706 22 50C22 45.0294 26.0294 41 31 41C35.9706 41 40 45.0294 40 50Z" fill="white"/>
<path d="M92 50C92 54.9706 87.9706 59 83 59C78.0294 59 74 54.9706 74 50C74 45.0294 78.0294 41 83 41C87.9706 41 92 45.0294 92 50Z" fill="white"/>
<path d="M66 50C66 54.9706 61.9706 59 57 59C52.0294 59 48 54.9706 48 50C48 45.0294 52.0294 41 57 41C61.9706 41 66 45.0294 66 50Z" fill="white"/>
<defs>
<linearGradient id="paint0_linear" x1="111.957" y1="91.4849" x2="68.2748" y2="82.8322" gradientUnits="userSpaceOnUse">
<stop stop-color="#00EAFF"/>
<stop offset="0.232292" stop-color="#3C8CE7"/>
</linearGradient>
<linearGradient id="paint1_linear" x1="0" y1="0" x2="94.5997" y2="112.337" gradientUnits="userSpaceOnUse">
<stop stop-color="#00CDDF"/>
<stop offset="1" stop-color="#006EEB"/>
</linearGradient>
</defs>
</svg>
